<?xml version="1.0" encoding="UTF-8"?>
<svg version="1.1" xmlns="http://www.w3.org/2000/svg" width="512" height="512">
<path d="M0 0 C168.96 0 337.92 0 512 0 C512 168.96 512 337.92 512 512 C343.04 512 174.08 512 0 512 C0 343.04 0 174.08 0 0 Z " fill="#F6EFE6" transform="translate(0,0)"/>
<path d="M0 0 C-0.78375 0.9075 -1.5675 1.815 -2.375 2.75 C-7.24550983 8.63863901 -8.11804438 14.15356712 -8.13803101 21.75244141 C-8.14348434 22.87636795 -8.14893768 24.00029449 -8.15455627 25.15827942 C-8.1555986 26.37706284 -8.15664093 27.59584625 -8.15771484 28.8515625 C-8.16551446 30.83975272 -8.17331811 32.82794294 -8.18127275 34.81613255 C-8.18896815 36.94672579 -8.19436152 39.0773148 -8.19923019 41.20791626 C-8.2099646 45.66493607 -8.23022619 50.12188141 -8.25234985 54.57885742 C-8.31408376 67.25094157 -8.36816107 79.92302141 -8.40136719 92.59521484 C-8.41980061 99.59932698 -8.44884675 106.60331409 -8.4893719 113.60733414 C-8.51030085 117.30549459 -8.52587885 121.00349844 -8.52817917 124.70172119 C-8.53075571 128.83908109 -8.55636378 132.97600936 -8.58349609 137.11328125 C-8.57898689 138.9171656 -8.57898689 138.9171656 -8.5743866 140.75749207 C-8.80465968 164.5567322 -17.87848592 184.44842344 -34.6796875 201.015625 C-37 203 -37 203 -39 203 C-37.28461478 206.26048898 -37.28461478 206.26048898 -33.99609375 206.9140625 C-32.82175781 207.14867187 -31.64742188 207.38328125 -30.4375 207.625 C-24.07977992 208.92022008 -24.07977992 208.92022008 -23 210 C-17.37410858 209.60732991 -13.18345709 207.93388861 -8.25 205.4375 C-1.375 202 -1.375 202 2 202 C2 193.42 2 184.84 2 176 C4 177 4 177 5.2890625 180.30859375 C5.74210268 181.68237148 6.18708349 183.05882681 6.625 184.4375 C6.85445312 185.13166016 7.08390625 185.82582031 7.3203125 186.54101562 C9 191.70505487 9 191.70505487 9 194 C11.1270011 193.74535902 13.25162215 193.47077058 15.375 193.1875 C17.15003906 192.96126953 17.15003906 192.96126953 18.9609375 192.73046875 C22.29532084 192.29300666 22.29532084 192.29300666 24 189 C24.268125 188.071875 24.53625 187.14375 24.8125 186.1875 C26.29077653 182.21949458 28.08638966 180.05929086 31 177 C31.66 177 32.32 177 33 177 C33.41185547 176.11441406 33.41185547 176.11441406 33.83203125 175.2109375 C36.4536886 170.24820152 40.42278316 166.38013598 44.75 162.875 C47.59443377 160.5391736 49.03435841 158.64797934 50 155 C50.66 155 51.32 155 52 155 C52.33 153.02 52.66 151.04 53 149 C52.48203857 148.73372803 51.96407715 148.46745605 51.43041992 148.19311523 C17.611932 130.75281855 17.611932 130.75281855 11 117 C6.991358 104.33269129 11.42608579 91.51950777 16.953125 80.19921875 C19.29479656 76.53923972 21.55386956 74.59433266 25 72 C25.66 72.33 26.32 72.66 27 73 C26.67 73.78375 26.34 74.5675 26 75.375 C24.32357806 81.45202953 24.36936426 87.88511596 26 94 C26.66 94 27.32 94 28 94 C28.90234375 95.46875 28.90234375 95.46875 29.9375 97.5 C38.01282729 110.75660666 57.01106255 116.78438274 70.6875 122.5 C83.32355095 127.81262745 95.05783466 134.3965457 105 144 C105 144.66 105 145.32 105 146 C105.66 146 106.32 146 107 146 C117.38170246 158.81398703 119.43833096 170.8208954 118.5703125 186.88867188 C118.33806751 194.01102206 118.33806751 194.01102206 121.81640625 199.96875 C122.87078374 200.9862818 123.93136595 201.99745118 125 203 C126.61422099 205.38792169 128.11211017 207.81309639 129.60546875 210.27734375 C130.29576172 211.13005859 130.29576172 211.13005859 131 212 C131.99 212 132.98 212 134 212 C135.19165039 213.43017578 135.19165039 213.43017578 136.34765625 215.4453125 C136.78335937 216.18628174 137.2190625 216.92725098 137.66796875 217.69067383 C138.12816406 218.49400146 138.58835937 219.2973291 139.0625 220.125 C143.00853938 226.81510138 147.13348671 233.24020026 151.73852539 239.49462891 C158 248.00646414 158 248.00646414 158 251 C155.64009381 252.17995309 154.0892104 252.1697279 151.45703125 252.24609375 C150.09288086 252.29540039 150.09288086 252.29540039 148.70117188 252.34570312 C146.79502335 252.40627715 144.88876964 252.4636373 142.98242188 252.51757812 C137.64754409 252.71655668 133.05869737 253.27178665 128 255 C128.33 258.3 128.66 261.6 129 265 C130.65 265 132.3 265 134 265 C133.67 265.66 133.34 266.32 133 267 C126.73 267 120.46 267 114 267 C114 266.34 114 265.68 114 265 C115.65 265 117.3 265 119 265 C119.33 261.37 119.66 257.74 120 254 C117.69 254 115.38 254 113 254 C112.67 255.65 112.34 257.3 112 259 C98.8 259 85.6 259 72 259 C72.33 260.32 72.66 261.64 73 263 C35.05 263 -2.9 263 -42 263 C-42 266.3 -42 269.6 -42 273 C-40.906875 272.525625 -39.81375 272.05125 -38.6875 271.5625 C-36.46523745 270.59812191 -34.30499515 269.76833172 -32 269 C-31.67 270.65 -31.34 272.3 -31 274 C-39.6612586 275.25981943 -48.27001243 275.09020653 -57 275 C-57 274.67 -57 274.34 -57 274 C-55.35 273.67 -53.7 273.34 -52 273 C-51.01 268.38 -50.02 263.76 -49 259 C-73.42 259 -97.84 259 -123 259 C-123 258.34 -123 257.68 -123 257 C-121.7934375 256.5978125 -121.7934375 256.5978125 -120.5625 256.1875 C-119.716875 255.795625 -118.87125 255.40375 -118 255 C-117.67 254.01 -117.34 253.02 -117 252 C-125.58 251.67 -134.16 251.34 -143 251 C-143 250.34 -143 249.68 -143 249 C-142.34 249 -141.68 249 -141 249 C-140.75378906 248.44441406 -140.50757813 247.88882813 -140.25390625 247.31640625 C-138.75995594 244.55655412 -136.94941592 242.34683141 -134.9375 239.9375 C-133.72320312 238.47183594 -133.72320312 238.47183594 -132.484375 236.9765625 C-130.93238835 235.1171068 -129.38031894 233.25772017 -127.828125 231.3984375 C-123.23674882 225.85192102 -118.82391353 220.19351322 -114.5 214.4375 C-113.70662231 213.38236206 -113.70662231 213.38236206 -112.8972168 212.3059082 C-110.22436872 208.79380246 -110.22436872 208.79380246 -108 205 C-107.34 205 -106.68 205 -106 205 C-108.08240556 201.38319035 -110.38873919 198.05962403 -112.9140625 194.74609375 C-116.10013974 189.62315661 -115.76694872 182.77382151 -115 177 C-113.05152438 172.51458297 -110.33269884 169.2216406 -106.75 165.9375 C-101.91306578 164.28854515 -96.81392558 163.8011678 -92.01953125 165.84375 C-90.375 167 -90.375 167 -88 170 C-87.2462763 174.7484593 -87.35804615 177.48004863 -90 181.5 C-90.66 182.325 -91.32 183.15 -92 184 C-92.33 183.34 -92.66 182.68 -93 182 C-92.67 181.01 -92.34 180.02 -92 179 C-92.99 179 -93.98 179 -95 179 C-95 178.34 -95 177.68 -95 177 C-96.32 177.33 -97.64 177.66 -99 178 C-99.45553828 184.37753586 -98.81897699 188.7673143 -95 194 C-87.88029544 201.73325181 -80.7860616 206.97929137 -70.125 207.625 C-62.60371742 207.33719582 -56.58772606 204.42050154 -51.15625 199.2421875 C-40.74735209 186.54970484 -38.53884258 169.49167639 -38.61181641 153.70727539 C-38.60774117 152.20937215 -38.602394 150.71147192 -38.59588623 149.21357727 C-38.58231863 145.18040945 -38.58746747 141.14747427 -38.59702349 137.11430287 C-38.60467671 132.87099077 -38.59755875 128.62769714 -38.59286499 124.38438416 C-38.5874232 117.2605333 -38.59455684 110.13677606 -38.60888672 103.01293945 C-38.62520392 94.80700547 -38.61992513 86.60129527 -38.6034075 78.39536673 C-38.58973997 71.31895234 -38.58789877 64.24260484 -38.59572351 57.1661815 C-38.60037202 52.95337701 -38.60110355 48.74067725 -38.59111404 44.52787971 C-38.58236973 40.56404855 -38.58860055 36.60050236 -38.60579681 32.63670158 C-38.60972247 31.1924677 -38.608696 29.74820933 -38.60200882 28.3039856 C-38.56246647 18.886973 -38.69072065 8.61855871 -43 0 C-42.43796875 0.144375 -41.8759375 0.28875 -41.296875 0.4375 C-34.81817618 1.86837827 -28.48497156 2.24887199 -21.875 2.3125 C-21.0406543 2.32990234 -20.20630859 2.34730469 -19.34667969 2.36523438 C-14.05147999 2.36106328 -9.83205322 1.53298638 -4.91455078 -0.45239258 C-3 -1 -3 -1 0 0 Z " fill="#545165" transform="translate(248,123)"/>
<path d="M0 0 C-0.78375 0.9075 -1.5675 1.815 -2.375 2.75 C-7.24550983 8.63863901 -8.11804438 14.15356712 -8.13803101 21.75244141 C-8.14348434 22.87636795 -8.14893768 24.00029449 -8.15455627 25.15827942 C-8.15611977 26.98645454 -8.15611977 26.98645454 -8.15771484 28.8515625 C-8.16551446 30.83975272 -8.17331811 32.82794294 -8.18127275 34.81613255 C-8.18896815 36.94672579 -8.19436152 39.0773148 -8.19923019 41.20791626 C-8.2099646 45.66493607 -8.23022619 50.12188141 -8.25234985 54.57885742 C-8.31408376 67.25094157 -8.36816107 79.92302141 -8.40136719 92.59521484 C-8.41980061 99.59932698 -8.44884675 106.60331409 -8.4893719 113.60733414 C-8.51030085 117.30549459 -8.52587885 121.00349844 -8.52817917 124.70172119 C-8.53075571 128.83908109 -8.55636378 132.97600936 -8.58349609 137.11328125 C-8.58048996 138.31587082 -8.57748383 139.51846039 -8.5743866 140.75749207 C-8.80465968 164.5567322 -17.87848592 184.44842344 -34.6796875 201.015625 C-37 203 -37 203 -39 203 C-38.67 203.99 -38.34 204.98 -38 206 C-42.55470668 210.43791933 -46.5847706 212.51010975 -53 213 C-55.2734375 212.5390625 -55.2734375 212.5390625 -57 212 C-54.525 211.01 -54.525 211.01 -52 210 C-54.3431213 210.25561323 -56.67843403 210.59270772 -59 211 C-59.495 211.99 -59.495 211.99 -60 213 C-63.96 213 -67.92 213 -72 213 C-72 211.68 -72 210.36 -72 209 C-69.36 209 -66.72 209 -64 209 C-64 208.34 -64 207.68 -64 207 C-63.27554688 206.6596875 -62.55109375 206.319375 -61.8046875 205.96875 C-50.45857146 200.28056383 -45.97927723 192.89817111 -42 181 C-39.14627176 171.84197129 -38.56769678 163.250448 -38.61181641 153.70727539 C-38.60774117 152.20937215 -38.602394 150.71147192 -38.59588623 149.21357727 C-38.58231863 145.18040945 -38.58746747 141.14747427 -38.59702349 137.11430287 C-38.60467671 132.87099077 -38.59755875 128.62769714 -38.59286499 124.38438416 C-38.5874232 117.2605333 -38.59455684 110.13677606 -38.60888672 103.01293945 C-38.62520392 94.80700547 -38.61992513 86.60129527 -38.6034075 78.39536673 C-38.58973997 71.31895234 -38.58789877 64.24260484 -38.59572351 57.1661815 C-38.60037202 52.95337701 -38.60110355 48.74067725 -38.59111404 44.52787971 C-38.58236973 40.56404855 -38.58860055 36.60050236 -38.60579681 32.63670158 C-38.60972247 31.1924677 -38.608696 29.74820933 -38.60200882 28.3039856 C-38.56246647 18.886973 -38.69072065 8.61855871 -43 0 C-42.43796875 0.144375 -41.8759375 0.28875 -41.296875 0.4375 C-34.81817618 1.86837827 -28.48497156 2.24887199 -21.875 2.3125 C-21.0406543 2.32990234 -20.20630859 2.34730469 -19.34667969 2.36523438 C-14.05147999 2.36106328 -9.83205322 1.53298638 -4.91455078 -0.45239258 C-3 -1 -3 -1 0 0 Z " fill="#A05B57" transform="translate(248,123)"/>
<path d="M0 0 C17.70503814 5.9572246 33.99747737 17.31481063 43.73046875 33.4296875 C47.93347831 41.93916532 48.19699262 51.37678504 46.25 60.625 C44.9599944 64.10801511 44.02684277 65.8634051 41 68 C39.68 68 38.36 68 37 68 C36.855625 68.7425 36.71125 69.485 36.5625 70.25 C33.96554181 74.82064642 29.12282235 76.05391469 24.25048828 77.5300293 C21.38567595 78.12828963 18.62832399 78.21981949 15.703125 78.31640625 C14.49785156 78.35830078 13.29257812 78.40019531 12.05078125 78.44335938 C10.79652344 78.48267578 9.54226563 78.52199219 8.25 78.5625 C6.98027344 78.60568359 5.71054687 78.64886719 4.40234375 78.69335938 C1.26833635 78.79939722 -1.86574933 78.90146058 -5 79 C-4.67 80.32 -4.34 81.64 -4 83 C-6.3902839 84.56287793 -7.80648255 85.00450041 -10.6875 84.9375 C-16.64469533 83.25150132 -22.26992901 80.00236776 -27 76 C-27 75.34 -27 74.68 -27 74 C-27.66 74 -28.32 74 -29 74 C-29 73.01 -29 72.02 -29 71 C-29.61875 70.773125 -30.2375 70.54625 -30.875 70.3125 C-33.61410209 68.62070165 -34.05024472 67.00755839 -35 64 C-35.66 64 -36.32 64 -37 64 C-38.03692345 62.06440955 -38.92824155 60.3468325 -39.375 58.1875 C-40.16715529 55.41495647 -41.55223893 53.22431938 -43.0625 50.78125 C-44.06586821 48.87485039 -44.55757539 47.10151689 -45 45 C-44.08476562 44.89042969 -43.16953125 44.78085937 -42.2265625 44.66796875 C-41.03804688 44.50941406 -39.84953125 44.35085938 -38.625 44.1875 C-37.44164062 44.03667969 -36.25828125 43.88585937 -35.0390625 43.73046875 C-31.70467916 43.29300666 -31.70467916 43.29300666 -30 40 C-29.731875 39.071875 -29.46375 38.14375 -29.1875 37.1875 C-27.70922347 33.21949458 -25.91361034 31.05929086 -23 28 C-22.34 28 -21.68 28 -21 28 C-20.72542969 27.40960938 -20.45085937 26.81921875 -20.16796875 26.2109375 C-17.5463114 21.24820152 -13.57721684 17.38013598 -9.25 13.875 C-6.40556623 11.5391736 -4.96564159 9.64797934 -4 6 C-3.34 6 -2.68 6 -2 6 C-1.34 4.02 -0.68 2.04 0 0 Z " fill="#8897A4" transform="translate(302,272)"/>
<path d="M0 0 C0.06058594 1.07121094 0.12117188 2.14242187 0.18359375 3.24609375 C0.26798537 4.64324391 0.35263406 6.04037857 0.4375 7.4375 C0.47681641 8.14455078 0.51613281 8.85160156 0.55664062 9.58007812 C0.47624438 13.08690419 0.47624438 13.08690419 2 16 C2.12601992 18.38082185 2.18867979 20.73093345 2.203125 23.11328125 C2.20882507 23.83807175 2.21452515 24.56286224 2.22039795 25.30961609 C2.22987225 26.85393814 2.23639152 28.39828062 2.24023438 29.94262695 C2.24980373 32.26486951 2.28074236 34.58617385 2.3125 36.90820312 C2.42490227 52.55643066 -0.53237032 68.68633111 -10.93359375 81.01953125 C-16.43349803 86.29070605 -22.41254021 89.31385158 -30.0625 89.6875 C-40.86591819 89.04626486 -48.86677144 82.7580369 -56 75 C-59.81777369 69.76532061 -60.45563274 65.37885838 -60 59 C-57.525 58.505 -57.525 58.505 -55 58 C-55 58.66 -55 59.32 -55 60 C-54.01 60 -53.02 60 -52 60 C-52 61.32 -52 62.64 -52 64 C-48.63349828 59.51133104 -48.3099435 56.43419491 -49 51 C-50.75209236 48.26319994 -50.75209236 48.26319994 -54 47 C-58.71317289 46.32779337 -62.64464527 46.37879575 -67 48.375 C-69.06216824 49.9935688 -69.06216824 49.9935688 -71 52 C-73.01135254 52.22273254 -73.01135254 52.22273254 -75.50976562 52.18286133 C-76.91131897 52.16712822 -76.91131897 52.16712822 -78.34118652 52.15107727 C-79.35265747 52.12829208 -80.36412842 52.1055069 -81.40625 52.08203125 C-82.9597113 52.05516487 -82.9597113 52.05516487 -84.54455566 52.02775574 C-86.73700179 51.98651368 -88.92935272 51.9399209 -91.12158203 51.88842773 C-94.48593642 51.81281607 -97.84998311 51.76382515 -101.21484375 51.71679688 C-103.34117943 51.67349442 -105.4674839 51.62862525 -107.59375 51.58203125 C-108.60522095 51.56936722 -109.61669189 51.55670319 -110.65881348 51.5436554 C-111.59318237 51.51740585 -112.52755127 51.49115631 -113.49023438 51.46411133 C-114.31471069 51.44697586 -115.13918701 51.42984039 -115.98864746 51.41218567 C-118 51 -118 51 -120 48 C-119.86578372 44.24194415 -119.76715513 41.87674872 -117.25 39 C-114.38266513 37.72562895 -112.95260978 38.06759691 -110 39 C-109.34 39.33 -108.68 39.66 -108 40 C-107.87882812 39.43410156 -107.75765625 38.86820312 -107.6328125 38.28515625 C-107.46523437 37.55167969 -107.29765625 36.81820312 -107.125 36.0625 C-106.96257812 35.33160156 -106.80015625 34.60070312 -106.6328125 33.84765625 C-106 32 -106 32 -104 31 C-102.125 30.8671875 -102.125 30.8671875 -100 30.875 C-98.948125 30.87113281 -98.948125 30.87113281 -97.875 30.8671875 C-96 31 -96 31 -94 32 C-93.773125 31.278125 -93.54625 30.55625 -93.3125 29.8125 C-90.98712968 24.82956359 -86.98812667 21.25653349 -82 19 C-78.13216874 18.72857324 -74.70479057 18.81446702 -71 20 C-71 20.66 -71 21.32 -71 22 C-70.09636719 22.03738281 -69.19273437 22.07476562 -68.26171875 22.11328125 C-67.08222656 22.17902344 -65.90273437 22.24476563 -64.6875 22.3125 C-63.51574219 22.37050781 -62.34398437 22.42851562 -61.13671875 22.48828125 C-58 23 -58 23 -56.15625 24.375 C-55 26 -55 26 -53.8125 28.6875 C-52.28863221 31.18724491 -52.28863221 31.18724491 -50.1015625 31.25 C-48.06685024 31.19123575 -46.03325669 31.09682175 -44 31 C-42 33 -42 33 -42 36 C-39.69 36 -37.38 36 -35 36 C-34.01 37.98 -34.01 37.98 -33 40 C-27.8845759 36.63843559 -25.6734043 32.32405622 -23 27 C-22.34 27 -21.68 27 -21 27 C-20.60941406 26.14341797 -20.60941406 26.14341797 -20.2109375 25.26953125 C-18.90323256 22.81863908 -17.376985 20.84114095 -15.625 18.6875 C-13.48562919 15.99787949 -11.58315319 13.4242907 -10 10.375 C-8.33428365 7.56410366 -3.80063971 0 0 0 Z " fill="#CBCAC7" transform="translate(208,242)"/>
<path d="M0 0 C5.52194288 0.22892477 8.05555672 1.40342339 11.734375 5.25585938 C12.23453125 5.81080078 12.7346875 6.36574219 13.25 6.9375 C17.30882081 11.31836567 17.30882081 11.31836567 22 15 C22 15.66 22 16.32 22 17 C22.56460938 17.24621094 23.12921875 17.49242188 23.7109375 17.74609375 C26.39079272 19.21406905 28.37958803 20.9935669 30.625 23.0625 C33.58789167 25.85780458 33.58789167 25.85780458 37 28 C37 28.99 37 29.98 37 31 C37.99 31 38.98 31 40 31 C40 30.34 40 29.68 40 29 C40.99 28.67 41.98 28.34 43 28 C43.99 28.99 43.99 28.99 45 30 C44.7215625 31.2065625 44.7215625 31.2065625 44.4375 32.4375 C43.73263634 34.96073363 43.73263634 34.96073363 45 36.8125 C48.08934814 38.64680046 50.45238473 38.29078814 54 38 C55.93208562 37.50622202 57.86408049 37.01207913 59.79516602 36.5144043 C63.45587506 35.66033343 67.14585335 35.19488065 70.875 34.75 C72.01195312 34.5953125 72.01195312 34.5953125 73.171875 34.4375 C75.10594321 34.20348463 77.05400247 34.0920687 79 34 C79.66 34.66 80.32 35.32 81 36 C80.91487459 39.23476569 80.30730346 40.66196619 78.125 43.0625 C72.28026287 46.68623702 65.75171784 48.78909408 59 50 C59.2165625 50.60328125 59.433125 51.2065625 59.65625 51.828125 C59.9346875 52.62734375 60.213125 53.4265625 60.5 54.25 C60.7784375 55.03890625 61.056875 55.8278125 61.34375 56.640625 C62 59 62 59 62 63 C62.99 62.34 63.98 61.68 65 61 C65.99 61 66.98 61 68 61 C68 62.32 68 63.64 68 65 C67.34 65 66.68 65 66 65 C66 65.99 66 66.98 66 68 C66.66 68 67.32 68 68 68 C68 68.99 68 69.98 68 71 C69.98 71 71.96 71 74 71 C74 71.66 74 72.32 74 73 C71.36 73.33 68.72 73.66 66 74 C65.67 76.64 65.34 79.28 65 82 C63.35 82 61.7 82 60 82 C60 80.35 60 78.7 60 77 C56.37 77 52.74 77 49 77 C48 73 48 73 49 71 C48.34 71 47.68 71 47 71 C46.67 69.35 46.34 67.7 46 66 C46.99 66 47.98 66 49 66 C49 65.34 49 64.68 49 64 C48.01 64 47.02 64 46 64 C46 63.34 46 62.68 46 62 C43.03 62 40.06 62 37 62 C37.33 60.02 37.66 58.04 38 56 C29.20294908 55.61935837 20.68836995 56.79268308 12 58 C12 61.63 12 65.26 12 69 C10.00045254 69.04254356 7.99958364 69.04080783 6 69 C5 68 5 68 4.9375 64.4375 C4.958125 63.303125 4.97875 62.16875 5 61 C3.80503906 61.11601562 2.61007812 61.23203125 1.37890625 61.3515625 C-11.16014242 62.1996141 -11.16014242 62.1996141 -16.19921875 58.9140625 C-22 52.54347826 -22 52.54347826 -22 47 C-20 46.1875 -20 46.1875 -17 46 C-14.8500915 47.10262634 -12.93507619 48.37671827 -10.96484375 49.7734375 C-8.95934803 51.02537718 -7.30777622 51.55797605 -5 52 C-5.474375 50.845 -5.94875 49.69 -6.4375 48.5 C-8.02208768 44.31429668 -8.60289195 40.44761014 -9 36 C-6.8125 35.5625 -6.8125 35.5625 -4 36 C-0.41486779 39.51561441 1.21704398 43.07248333 2 48 C11.24595846 47.01391911 20.0974338 45.82920536 29 43 C28.01 42.67 27.02 42.34 26 42 C26 41.34 26 40.68 26 40 C26.66 39.67 27.32 39.34 28 39 C26.68 38.67 25.36 38.34 24 38 C24 37.01 24 36.02 24 35 C23.01 35 22.02 35 21 35 C21 34.34 21 33.68 21 33 C21.66 33 22.32 33 23 33 C23 32.34 23 31.68 23 31 C21.35 31 19.7 31 18 31 C18.66 29.35 19.32 27.7 20 26 C18.02 26 16.04 26 14 26 C14 25.01 14 24.02 14 23 C14.99 23 15.98 23 17 23 C17 22.34 17 21.68 17 21 C16.236875 20.773125 15.47375 20.54625 14.6875 20.3125 C11.37083593 18.69273382 10.77580479 17.18165024 9 14 C8.21625 13.21625 7.4325 12.4325 6.625 11.625 C3.62206101 8.62206101 1.40015944 5.49737518 -1 2 C-0.67 1.34 -0.34 0.68 0 0 Z " fill="#9B5454" transform="translate(302,108)"/>
<path d="M0 0 C0.99 0.66 1.98 1.32 3 2 C3 2.66 3 3.32 3 4 C3.7425 4.226875 4.485 4.45375 5.25 4.6875 C8.51099538 6.24388416 9.78973896 8.20033601 12 11 C12.99 11 13.98 11 15 11 C16.19165039 12.43017578 16.19165039 12.43017578 17.34765625 14.4453125 C17.78335938 15.18628174 18.2190625 15.92725098 18.66796875 16.69067383 C19.12816406 17.49400146 19.58835937 18.2973291 20.0625 19.125 C24.00853938 25.81510138 28.13348671 32.24020026 32.73852539 38.49462891 C39 47.00646414 39 47.00646414 39 50 C36.64009381 51.17995309 35.0892104 51.1697279 32.45703125 51.24609375 C31.54759766 51.27896484 30.63816406 51.31183594 29.70117188 51.34570312 C27.79502335 51.40627715 25.88876964 51.4636373 23.98242188 51.51757812 C18.64754409 51.71655668 14.05869737 52.27178665 9 54 C9.495 58.95 9.495 58.95 10 64 C11.65 64 13.3 64 15 64 C14.67 64.66 14.34 65.32 14 66 C7.73 66 1.46 66 -5 66 C-5 65.34 -5 64.68 -5 64 C-3.35 64 -1.7 64 0 64 C0.33 60.37 0.66 56.74 1 53 C-1.31 53 -3.62 53 -6 53 C-6.33 54.65 -6.66 56.3 -7 58 C-9.64 58 -12.28 58 -15 58 C-15.020625 56.9275 -15.04125 55.855 -15.0625 54.75 C-15.59081845 51.07050859 -15.59081845 51.07050859 -17.625 49.64453125 C-19.36834009 48.67093205 -21.1821985 47.82627341 -23 47 C-23 46.01 -23 45.02 -23 44 C-23.886875 43.773125 -24.77375 43.54625 -25.6875 43.3125 C-29.65794858 41.73930339 -31.53638755 40.50878137 -34 37 C-34.11462079 33.89481852 -33.66612152 31.02722553 -33 28 C-31.989375 27.938125 -30.97875 27.87625 -29.9375 27.8125 C-25.96379542 27.27944207 -23.55268076 25.54026615 -20.48046875 23.05859375 C-19 22 -19 22 -17 22 C-17 21.34 -17 20.68 -17 20 C-16.34 20 -15.68 20 -15 20 C-15 19.34 -15 18.68 -15 18 C-14.34 18 -13.68 18 -13 18 C-13 17.34 -13 16.68 -13 16 C-12.34 16 -11.68 16 -11 16 C-9.90852185 13.84708438 -8.85671325 11.68710852 -7.8515625 9.4921875 C-7.24441406 8.19667969 -7.24441406 8.19667969 -6.625 6.875 C-6.02558594 5.57175781 -6.02558594 5.57175781 -5.4140625 4.2421875 C-3.84586063 1.75559116 -2.71054247 1.02654587 0 0 Z " fill="#3E5873" transform="translate(367,324)"/>
<path d="M0 0 C0 0.66 0 1.32 0 2 C1.134375 2.20625 2.26875 2.4125 3.4375 2.625 C9.94306494 4.26875484 15.44764388 7.55386308 19.0625 13.25 C20 16 20 16 20 18 C20.70125 17.649375 21.4025 17.29875 22.125 16.9375 C25.67243923 15.78072634 27.46499939 15.79659554 31 17 C31.598125 18.010625 32.19625 19.02125 32.8125 20.0625 C34.61198052 23.19799747 34.61198052 23.19799747 37.140625 23.32421875 C38.72265552 23.27573717 40.30417316 23.17495718 41.87890625 23.015625 C44 23 44 23 47 25 C46.75 27.375 46.75 27.375 46 30 C42.68663946 32.29238761 39.60651247 32.28526118 35.65844727 32.35400391 C34.37353897 32.37967438 33.08863068 32.40534485 31.76478577 32.43179321 C30.36534167 32.44812579 28.96588007 32.46301369 27.56640625 32.4765625 C26.50559499 32.48878908 26.50559499 32.48878908 25.4233532 32.50126266 C21.68288229 32.54289883 17.94255642 32.57154281 14.2019043 32.59033203 C10.34298341 32.61249571 6.4863587 32.68134588 2.62825108 32.76067543 C-0.3443882 32.81299613 -3.31647823 32.82971327 -6.28953743 32.83689499 C-7.71180876 32.84662476 -9.13405566 32.86985014 -10.55587578 32.90697098 C-21.65659085 33.17886898 -21.65659085 33.17886898 -24.97512817 30.26678467 C-26.89253065 27.28823166 -27.88395765 24.34812705 -29 21 C-29.66 21 -30.32 21 -31 21 C-33.73397536 18.47107279 -35.93063422 16.10404867 -38 13 C-36.25 10.5 -36.25 10.5 -34 8 C-32.68 8 -31.36 8 -30 8 C-30 7.34 -30 6.68 -30 6 C-26.03146526 4.67715509 -21.99661384 4.31775936 -17.9765625 5.69140625 C-17.32429688 5.79324219 -16.67203125 5.89507812 -16 6 C-14.3106492 4.79708164 -14.3106492 4.79708164 -12.8125 3.0625 C-8.77013844 -0.74259252 -5.32561343 -0.65211593 0 0 Z " fill="#ADC9CE" transform="translate(384,248)"/>
<path d="M0 0 C0 0.66 0 1.32 0 2 C0.90363281 2.03738281 1.80726563 2.07476562 2.73828125 2.11328125 C3.91777344 2.17902344 5.09726563 2.24476563 6.3125 2.3125 C8.07013672 2.39951172 8.07013672 2.39951172 9.86328125 2.48828125 C13 3 13 3 14.8359375 4.375 C16 6 16 6 17.3125 8.6875 C17.869375 9.450625 18.42625 10.21375 19 11 C22.12635209 11.41746608 22.12635209 11.41746608 25 11 C25 11.66 25 12.32 25 13 C25.66 13 26.32 13 27 13 C27.495 15.475 27.495 15.475 28 18 C30.31 18.33 32.62 18.66 35 19 C35.495 20.98 35.495 20.98 36 23 C35.154375 22.9175 34.30875 22.835 33.4375 22.75 C28.96520711 23.07525766 26.79559115 24.6642516 23 27 C22.34 27 21.68 27 21 27 C20.67 27.66 20.34 28.32 20 29 C19.01 28.34 18.02 27.68 17 27 C12.38289304 26.39742841 8.25329616 26.42557259 4 28.375 C1.93783176 29.9935688 1.93783176 29.9935688 0 32 C-2.01135254 32.22273254 -2.01135254 32.22273254 -4.50976562 32.18286133 C-5.91131897 32.16712822 -5.91131897 32.16712822 -7.34118652 32.15107727 C-8.35265747 32.12829208 -9.36412842 32.1055069 -10.40625 32.08203125 C-11.9597113 32.05516487 -11.9597113 32.05516487 -13.54455566 32.02775574 C-15.73700179 31.98651368 -17.92935272 31.9399209 -20.12158203 31.88842773 C-23.48593642 31.81281607 -26.84998311 31.76382515 -30.21484375 31.71679688 C-32.34117943 31.67349442 -34.4674839 31.62862525 -36.59375 31.58203125 C-37.60522095 31.56936722 -38.61669189 31.55670319 -39.65881348 31.5436554 C-40.59318237 31.51740585 -41.52755127 31.49115631 -42.49023438 31.46411133 C-43.31471069 31.44697586 -44.13918701 31.42984039 -44.98864746 31.41218567 C-47 31 -47 31 -49 28 C-48.86578372 24.24194415 -48.76715513 21.87674872 -46.25 19 C-43.38266513 17.72562895 -41.95260978 18.06759691 -39 19 C-38.34 19.33 -37.68 19.66 -37 20 C-36.87882812 19.43410156 -36.75765625 18.86820312 -36.6328125 18.28515625 C-36.46523437 17.55167969 -36.29765625 16.81820313 -36.125 16.0625 C-35.88136719 14.96615234 -35.88136719 14.96615234 -35.6328125 13.84765625 C-35 12 -35 12 -33 11 C-31.125 10.8671875 -31.125 10.8671875 -29 10.875 C-27.948125 10.87113281 -27.948125 10.87113281 -26.875 10.8671875 C-25 11 -25 11 -23 12 C-22.773125 11.278125 -22.54625 10.55625 -22.3125 9.8125 C-18.0093441 0.59145163 -9.60321602 -3.07302913 0 0 Z " fill="#A7C7CE" transform="translate(137,262)"/>
<path d="M0 0 C0.33 0 0.66 0 1 0 C1.58523375 21.93542813 1.58523375 21.93542813 -2 32 C-2.35191406 33.01449219 -2.70382813 34.02898437 -3.06640625 35.07421875 C-6.97696251 45.36040139 -11.96691887 52.98204655 -22.0234375 57.96875 C-28.34737514 60.15972052 -34.32150559 59.87743782 -40.625 57.8125 C-43.36764526 55.71942861 -43.86375489 54.1846136 -45 51 C-40.67813151 47.54659208 -36.37918492 44.1887477 -31.6875 41.25 C-20.0687941 33.63351968 -11.79534465 24.23302544 -5.8125 11.8125 C-5.47025391 11.11447266 -5.12800781 10.41644531 -4.77539062 9.69726562 C-4.12591425 8.37182938 -3.47877095 7.04524619 -2.83447266 5.71728516 C-1.90470045 3.80388032 -0.95726047 1.89979386 0 0 Z " fill="#F6F1EE" transform="translate(209,272)"/>
<path d="M0 0 C1.64453125 1.15625 1.64453125 1.15625 4.01953125 4.15625 C4.77325495 8.9047093 4.6614851 11.63629863 2.01953125 15.65625 C1.02953125 16.89375 1.02953125 16.89375 0.01953125 18.15625 C-0.31046875 17.49625 -0.64046875 16.83625 -0.98046875 16.15625 C-0.65046875 15.16625 -0.32046875 14.17625 0.01953125 13.15625 C-0.97046875 13.15625 -1.96046875 13.15625 -2.98046875 13.15625 C-2.98046875 12.49625 -2.98046875 11.83625 -2.98046875 11.15625 C-4.30046875 11.48625 -5.62046875 11.81625 -6.98046875 12.15625 C-7.43600703 18.53378586 -6.79944574 22.9235643 -2.98046875 28.15625 C5.55506605 37.42734256 13.20766389 41.39130348 25.7109375 42.078125 C26.47277344 42.10390625 27.23460937 42.1296875 28.01953125 42.15625 C28.01953125 42.48625 28.01953125 42.81625 28.01953125 43.15625 C25.37953125 43.15625 22.73953125 43.15625 20.01953125 43.15625 C19.68953125 44.47625 19.35953125 45.79625 19.01953125 47.15625 C15.93570511 46.84849454 12.8525776 46.5342141 9.76953125 46.21875 C8.89683594 46.13173828 8.02414063 46.04472656 7.125 45.95507812 C6.28066406 45.86806641 5.43632812 45.78105469 4.56640625 45.69140625 C3.79135742 45.612854 3.01630859 45.53430176 2.21777344 45.45336914 C0.09330087 45.16622086 -1.913434 44.71830228 -3.98046875 44.15625 C-3.98046875 43.49625 -3.98046875 42.83625 -3.98046875 42.15625 C-4.53734375 42.05570312 -5.09421875 41.95515625 -5.66796875 41.8515625 C-13.17177512 40.0009616 -17.01793207 35.64644797 -20.98046875 29.15625 C-23.3878986 23.17319483 -23.92027717 17.53060275 -22.98046875 11.15625 C-21.02080724 6.67327853 -18.31550149 3.38003001 -14.73046875 0.09375 C-9.89353453 -1.55520485 -4.79439433 -2.0425822 0 0 Z " fill="#69414A" transform="translate(155.98046875,288.84375)"/>
<path d="M0 0 C-0.78375 0.9075 -1.5675 1.815 -2.375 2.75 C-7.2702069 8.66849874 -8.10847733 14.21495048 -8.15821838 21.84664917 C-8.1680072 22.99080795 -8.17779602 24.13496674 -8.18788147 25.313797 C-8.19363693 26.55457504 -8.1993924 27.79535309 -8.20532227 29.07373047 C-8.21522186 30.39133865 -8.22512146 31.70894684 -8.23532104 33.06648254 C-8.26226674 36.66723293 -8.28333198 40.26799629 -8.30332303 43.8687911 C-8.32524664 47.63643833 -8.35260403 51.40404606 -8.37937927 55.17166138 C-8.4292202 62.30067412 -8.4741908 69.4297089 -8.51740164 76.55876458 C-8.56684768 84.67727592 -8.62173841 92.79574762 -8.67708123 100.91422057 C-8.79076919 117.60944379 -8.89763675 134.30470342 -9 151 C-9.33 151 -9.66 151 -10 151 C-10.01030746 150.14444519 -10.02061493 149.28889038 -10.03123474 148.40740967 C-10.12921725 140.3441413 -10.23173285 132.28094605 -10.33933926 124.21780014 C-10.39450068 120.07247287 -10.44790977 115.92713847 -10.49731445 111.78173828 C-10.54505811 107.78111963 -10.5974044 103.78058524 -10.65294075 99.78006744 C-10.67331902 98.25387928 -10.6920395 96.72766805 -10.70907402 95.2014389 C-10.7332185 93.06356984 -10.76325894 90.92585876 -10.79467773 88.78808594 C-10.81799416 86.96274323 -10.81799416 86.96274323 -10.84178162 85.1005249 C-10.97422727 82.50505513 -11.36248589 80.48515699 -12 78 C-12.10579445 76.04754671 -12.15846929 74.09194836 -12.17700195 72.13671875 C-12.18983719 70.9544873 -12.20267242 69.77225586 -12.21589661 68.55419922 C-12.22328354 67.27818848 -12.23067047 66.00217773 -12.23828125 64.6875 C-12.246353 63.36766113 -12.25442474 62.04782227 -12.26274109 60.68798828 C-12.27774955 57.89046357 -12.28759365 55.09296403 -12.29516602 52.29541016 C-12.30616968 48.74284171 -12.34050507 45.19091015 -12.38033772 41.63856506 C-12.40672513 38.88099149 -12.41487763 36.1235639 -12.41844749 33.36587524 C-12.42558006 31.42961635 -12.45192965 29.49345813 -12.47883606 27.55737305 C-12.45893078 19.34200861 -11.08997881 12.61554807 -8 5 C-11.93749394 4.97221261 -15.87493843 4.95320537 -19.8125 4.9375 C-20.93205078 4.92912109 -22.05160156 4.92074219 -23.20507812 4.91210938 C-24.27822266 4.90888672 -25.35136719 4.90566406 -26.45703125 4.90234375 C-27.44678955 4.89710693 -28.43654785 4.89187012 -29.45629883 4.88647461 C-32.12392734 4.88930041 -32.12392734 4.88930041 -35 6 C-35 28.11 -35 50.22 -35 73 C-35.66 73 -36.32 73 -37 73 C-37 100.72 -37 128.44 -37 157 C-37.33 157 -37.66 157 -38 157 C-38.00238835 156.28015332 -38.00477671 155.56030664 -38.00723743 154.81864643 C-38.0665247 137.25568462 -38.14216184 119.69286816 -38.23571491 102.13005543 C-38.28056849 93.63660236 -38.32000687 85.14319024 -38.34643555 76.6496582 C-38.36950055 69.24163728 -38.40299248 61.83374711 -38.44870156 54.42583007 C-38.47251986 50.50797132 -38.49132288 46.59024113 -38.49761391 42.67231178 C-38.50371687 38.97452588 -38.52390117 35.27706846 -38.55427551 31.57940483 C-38.56707843 29.5959647 -38.56550015 27.61244749 -38.5632782 25.62896729 C-38.65154614 17.09175609 -39.10829429 7.78341142 -43 0 C-42.43796875 0.144375 -41.8759375 0.28875 -41.296875 0.4375 C-34.81817618 1.86837827 -28.48497156 2.24887199 -21.875 2.3125 C-20.62348145 2.33860352 -20.62348145 2.33860352 -19.34667969 2.36523438 C-14.05147999 2.36106328 -9.83205322 1.53298638 -4.91455078 -0.45239258 C-3 -1 -3 -1 0 0 Z " fill="#C4867B" transform="translate(248,123)"/>
<path d="M0 0 C2.1875 -0.4375 2.1875 -0.4375 5 0 C8.58513221 3.51561441 10.21704398 7.07248333 11 12 C19.73953968 10.98074847 28.40632701 9.94183957 37 8 C37 8.66 37 9.32 37 10 C35.46875 11.5078125 35.46875 11.5078125 33.5 13.125 C32.8503125 13.66382813 32.200625 14.20265625 31.53125 14.7578125 C31.0259375 15.16773438 30.520625 15.57765625 30 16 C30.99 16.33 31.98 16.66 33 17 C33 17.66 33 18.32 33 19 C34.32 19.33 35.64 19.66 37 20 C31.72 20.66 26.44 21.32 21 22 C21 25.63 21 29.26 21 33 C19.00045254 33.04254356 16.99958364 33.04080783 15 33 C14 32 14 32 13.9375 28.4375 C13.958125 27.303125 13.97875 26.16875 14 25 C12.20755859 25.17402344 12.20755859 25.17402344 10.37890625 25.3515625 C-2.16014242 26.1996141 -2.16014242 26.1996141 -7.19921875 22.9140625 C-13 16.54347826 -13 16.54347826 -13 11 C-11 10.1875 -11 10.1875 -8 10 C-5.8500915 11.10262634 -3.93507619 12.37671827 -1.96484375 13.7734375 C0.04065197 15.02537718 1.69222378 15.55797605 4 16 C3.525625 14.845 3.05125 13.69 2.5625 12.5 C0.97791232 8.31429668 0.39710805 4.44761014 0 0 Z " fill="#A15453" transform="translate(293,144)"/>
<path d="M0 0 C3.91115236 6.22887227 6.91086065 12.94080768 9 20 C8.67 20.99 8.34 21.98 8 23 C2.23887642 25.33538164 -3.29238163 25.24002741 -9.4375 25.125 C-10.35982422 25.11597656 -11.28214844 25.10695313 -12.23242188 25.09765625 C-14.48855809 25.0742766 -16.74413684 25.04150916 -19 25 C-22 19.25 -22 19.25 -22 17 C-20.63671875 15.625 -20.63671875 15.625 -18.6875 14 C-14.11322391 10.13637037 -9.76528074 6.05571703 -5.41796875 1.94140625 C-3 0 -3 0 0 0 Z " fill="#F2F4F3" transform="translate(323,325)"/>
<path d="M0 0 C0.66 0 1.32 0 2 0 C2.45572917 2.01822917 2.91145833 4.03645833 3.3671875 6.0546875 C3.90474428 8.20719964 3.90474428 8.20719964 6 10 C5.34 10 4.68 10 4 10 C4.165 10.825 4.33 11.65 4.5 12.5 C5.05896045 16.41272317 5.06807187 20.05183173 5 24 C6.093125 23.525625 7.18625 23.05125 8.3125 22.5625 C10.53476255 21.59812191 12.69500485 20.76833172 15 20 C15.495 22.475 15.495 22.475 16 25 C7.3387414 26.25981943 -1.27001243 26.09020653 -10 26 C-10 25.67 -10 25.34 -10 25 C-8.35 24.67 -6.7 24.34 -5 24 C-4.01 19.38 -3.02 14.76 -2 10 C-26.42 10 -50.84 10 -76 10 C-76 9.34 -76 8.68 -76 8 C-75.236875 7.71125 -74.47375 7.4225 -73.6875 7.125 C-70.84970692 6.03730987 -70.84970692 6.03730987 -68 4 C-67.01 4.33 -66.02 4.66 -65 5 C-65.99 6.485 -65.99 6.485 -67 8 C-45.22 8 -23.44 8 -1 8 C-1 6.02 -1 4.04 -1 2 C-0.67 1.34 -0.34 0.68 0 0 Z " fill="#253A4E" transform="translate(201,372)"/>
<path d="M0 0 C0.66 0 1.32 0 2 0 C2.14036598 10.71460306 1.73259082 21.3120232 1 32 C-2 32 -2 32 -3.68359375 30.49609375 C-7.33805871 26.20677741 -10.63005907 22.13487202 -13 17 C-12.75 14.5625 -12.75 14.5625 -12 13 C-11.34 13 -10.68 13 -10 13 C-9.34 11.68 -8.68 10.36 -8 9 C-7.34 9 -6.68 9 -6 9 C-5.7525 8.443125 -5.505 7.88625 -5.25 7.3125 C-3.77075182 4.57589087 -2.06532561 2.32349131 0 0 Z " fill="#DED8D0" transform="translate(270,264)"/>
<path d="M0 0 C0.33 0 0.66 0 1 0 C1 45.87 1 91.74 1 139 C0.67 139 0.34 139 0 139 C-0.01030746 138.14444519 -0.02061493 137.28889038 -0.03123474 136.40740967 C-0.12921725 128.3441413 -0.23173285 120.28094605 -0.33933926 112.21780014 C-0.39450068 108.07247287 -0.44790977 103.92713847 -0.49731445 99.78173828 C-0.54505811 95.78111963 -0.5974044 91.78058524 -0.65294075 87.78006744 C-0.67331902 86.25387928 -0.6920395 84.72766805 -0.70907402 83.2014389 C-0.7332185 81.06356984 -0.76325894 78.92585876 -0.79467773 76.78808594 C-0.81022202 75.5711908 -0.8257663 74.35429565 -0.84178162 73.1005249 C-0.97425777 70.50445736 -1.36694439 68.48649809 -2 66 C-2.09628452 64.01028464 -2.1380982 62.01766554 -2.14526367 60.02563477 C-2.15483345 58.21839684 -2.15483345 58.21839684 -2.16459656 56.37464905 C-2.16570938 55.07667892 -2.1668222 53.7787088 -2.16796875 52.44140625 C-2.17118385 51.09146591 -2.17454812 49.74152592 -2.17805481 48.3915863 C-2.18403561 45.56467888 -2.18589576 42.73780198 -2.18530273 39.91088867 C-2.1852011 36.29505996 -2.19885944 32.67942755 -2.21607494 29.06364536 C-2.22721217 26.27633267 -2.22922142 23.48906721 -2.22869301 20.70173454 C-2.23044122 18.72257406 -2.24126953 16.74342832 -2.25224304 14.76429749 C-2.24916641 13.55632004 -2.24608978 12.34834259 -2.24291992 11.10375977 C-2.24434494 10.0432692 -2.24576996 8.98277863 -2.24723816 7.89015198 C-1.99129522 4.89824335 -1.25976539 2.70997609 0 0 Z " fill="#B17971" transform="translate(238,135)"/>
<path d="M0 0 C2.1875 -0.4375 2.1875 -0.4375 5 0 C7.82537169 2.77058609 9.58800467 5.98212919 11.0625 9.625 C11 12 11 12 9.375 14.75 C6.73239904 17.2535167 5.49355025 17.46253073 2 18 C0.33289654 19.49985609 0.33289654 19.49985609 -1 21 C-1.66 21 -2.32 21 -3 21 C-3 21.66 -3 22.32 -3 23 C2.28 23.33 7.56 23.66 13 24 C13 24.33 13 24.66 13 25 C-1.7162224 26.52062 -1.7162224 26.52062 -7.1328125 22.9140625 C-13 16.48090836 -13 16.48090836 -13 11 C-11 10.1875 -11 10.1875 -8 10 C-5.8500915 11.10262634 -3.93507619 12.37671827 -1.96484375 13.7734375 C0.04065197 15.02537718 1.69222378 15.55797605 4 16 C3.525625 14.845 3.05125 13.69 2.5625 12.5 C0.97791232 8.31429668 0.39710805 4.44761014 0 0 Z " fill="#AC7874" transform="translate(293,144)"/>
<path d="M0 0 C16.5 0 33 0 50 0 C50 0.33 50 0.66 50 1 C49.10075806 1.029729 49.10075806 1.029729 48.18334961 1.06005859 C45.43433529 1.15605003 42.68600507 1.26542505 39.9375 1.375 C38.52307617 1.42140625 38.52307617 1.42140625 37.08007812 1.46875 C31.72433421 1.69268354 27.07901759 2.26707583 22 4 C22.33 7.3 22.66 10.6 23 14 C24.65 14 26.3 14 28 14 C27.67 14.66 27.34 15.32 27 16 C20.73 16 14.46 16 8 16 C8 15.34 8 14.68 8 14 C9.65 14 11.3 14 13 14 C13.33 10.37 13.66 6.74 14 3 C11.69 3 9.38 3 7 3 C6.67 4.65 6.34 6.3 6 8 C5.67 7.01 5.34 6.02 5 5 C4.34 4.67 3.68 4.34 3 4 C1 3 1 3 0 0 Z " fill="#C1D1E0" transform="translate(354,374)"/>
<path d="M0 0 C5.52194288 0.22892477 8.05555672 1.40342339 11.734375 5.25585938 C12.48460937 6.08827148 12.48460937 6.08827148 13.25 6.9375 C17.30882081 11.31836567 17.30882081 11.31836567 22 15 C22 15.66 22 16.32 22 17 C22.66 17.33 23.32 17.66 24 18 C23.01 18.66 22.02 19.32 21 20 C19.66431979 19.67619874 18.33076989 19.34342449 17 19 C16.34 19.66 15.68 20.32 15 21 C8.97213717 15.14942725 3.78809186 8.90048533 -1 2 C-0.67 1.34 -0.34 0.68 0 0 Z " fill="#A36563" transform="translate(302,108)"/>
<path d="M0 0 C0.99 0 1.98 0 3 0 C3 0.66 3 1.32 3 2 C5.97 2 8.94 2 12 2 C12.042721 3.66611905 12.04063832 5.33382885 12 7 C11 8 11 8 7.1875 8.125 C4.31082025 8.09401243 1.75227001 7.91742334 -1 7 C-1 7.66 -1 8.32 -1 9 C-1.66 9 -2.32 9 -3 9 C-3.1546875 10.0828125 -3.1546875 10.0828125 -3.3125 11.1875 C-4.07674981 14.31397652 -5.26229078 16.29689676 -7 19 C-7.73545487 20.26720461 -8.46444491 21.5381795 -9.1875 22.8125 C-9.785625 23.864375 -10.38375 24.91625 -11 26 C-11.66 26 -12.32 26 -13 26 C-14.05184207 16.11268452 -7.67927496 9.30016274 -1.8671875 1.87109375 C-1.25101563 1.25363281 -0.63484375 0.63617188 0 0 Z " fill="#788EA2" transform="translate(157,342)"/>
<path d="M0 0 C1.18851562 0.00902344 2.37703125 0.01804688 3.6015625 0.02734375 C4.51679688 0.03894531 5.43203125 0.05054688 6.375 0.0625 C6.375 0.7225 6.375 1.3825 6.375 2.0625 C5.0020644 3.20074575 3.57495619 4.27414428 2.125 5.3125 C-1.74484519 8.22995338 -4.04465637 10.93395019 -6.625 15.0625 C-9.9494948 18.81240409 -13.00672225 21.99642838 -17.625 24.0625 C-17.625 22.7425 -17.625 21.4225 -17.625 20.0625 C-16.965 19.7325 -16.305 19.4025 -15.625 19.0625 C-14.63295641 17.37602589 -13.64708685 15.68509612 -12.71484375 13.96484375 C-11.625 12.0625 -11.625 12.0625 -9.3125 8.9375 C-7.33339799 6.20122074 -7.33339799 6.20122074 -7.875 3.1875 C-8.1225 2.48625 -8.37 1.785 -8.625 1.0625 C-5.74084117 -0.37957941 -3.20778472 -0.03144887 0 0 Z " fill="#E7D3C5" transform="translate(296.625,168.9375)"/>
<path d="M0 0 C0.66 0.33 1.32 0.66 2 1 C1.39816251 3.02045442 0.72693904 5.02111039 0 7 C-0.99 7.495 -0.99 7.495 -2 8 C-2.33 8.99 -2.66 9.98 -3 11 C-4.66666667 12.66666667 -6.33333333 14.33333333 -8 16 C-9.75186307 18.28359387 -11.3703693 20.62539526 -13 23 C-13.625 21.1875 -13.625 21.1875 -14 19 C-13.01 17.515 -13.01 17.515 -12 16 C-11.79477819 11.69034192 -11.8384136 8.15383295 -13 4 C-11.59248779 3.13083113 -10.1735479 2.28014851 -8.75 1.4375 C-7.96109375 0.96183594 -7.1721875 0.48617188 -6.359375 -0.00390625 C-3.65309494 -1.14645826 -2.68662653 -1.05053986 0 0 Z " fill="#EBEAE6" transform="translate(171,285)"/>
<path d="M0 0 C0.66 0 1.32 0 2 0 C2.66 1.32 3.32 2.64 4 4 C4.66 3.34 5.32 2.68 6 2 C8.125 2.375 8.125 2.375 10 3 C9.01 3.33 8.02 3.66 7 4 C7 4.66 7 5.32 7 6 C31.42 6 55.84 6 81 6 C81 6.99 81 7.98 81 9 C79.35 9.33 77.7 9.66 76 10 C76 9.34 76 8.68 76 8 C49.6 8 23.2 8 -4 8 C-4 7.01 -4 6.02 -4 5 C-3.01 5 -2.02 5 -1 5 C-0.67 3.35 -0.34 1.7 0 0 Z " fill="#8E9FAA" transform="translate(118,376)"/>
<path d="M0 0 C12.54 0 25.08 0 38 0 C37.67 0.66 37.34 1.32 37 2 C36.04480469 1.98839844 35.08960938 1.97679687 34.10546875 1.96484375 C26.33431699 1.91060839 18.73195186 2.09981434 11 3 C10.67 3.99 10.34 4.98 10 6 C6.31082874 8.86935543 4.75567676 10 0 10 C0 6.7 0 3.4 0 0 Z " fill="#CDDEE8" transform="translate(206,386)"/>
<path d="M0 0 C1.9375 0.8125 1.9375 0.8125 4 2 C4.33 2.99 4.66 3.98 5 5 C5.66 5 6.32 5 7 5 C8.4375 6.79296875 8.4375 6.79296875 10 9.1875 C10.515625 9.96480469 11.03125 10.74210937 11.5625 11.54296875 C12.98240427 13.9699247 14.02689971 16.36607951 15 19 C12 18 12 18 10 16 C9.030625 16 8.06125 16 7.0625 16 C4 16 4 16 1 14 C0.234375 11.7578125 0.234375 11.7578125 -0.25 9.125 C-0.42015625 8.26132812 -0.5903125 7.39765625 -0.765625 6.5078125 C-0.99778803 4.02366804 -0.76635351 2.35380006 0 0 Z " fill="#807680" transform="translate(348,264)"/>
<path d="M0 0 C0.33 0.66 0.66 1.32 1 2 C2.64363134 2.72159424 4.31050386 3.39351421 6 4 C5.67 4.66 5.34 5.32 5 6 C3.3603125 6.4021875 3.3603125 6.4021875 1.6875 6.8125 C-2.44953248 8.1447647 -3.6564191 9.43775703 -6 13 C-5.67 13.66 -5.34 14.32 -5 15 C-6.2065625 16.175625 -6.2065625 16.175625 -7.4375 17.375 C-9.98690417 19.71982856 -9.98690417 19.71982856 -11 22 C-11.66 22 -12.32 22 -13 22 C-13.28875 22.639375 -13.5775 23.27875 -13.875 23.9375 C-15 26 -15 26 -17 27 C-17.66 27.99 -18.32 28.98 -19 30 C-19.99 30 -20.98 30 -22 30 C-20.4675069 26.52581408 -18.39460285 23.94428729 -15.9375 21.0625 C-11.92807645 16.26157212 -8.34219249 11.29900257 -4.91967773 6.06469727 C-3.99417614 4.67676103 -3.00262017 3.33329405 -2 2 C-1.34 2 -0.68 2 0 2 C0 1.34 0 0.68 0 0 Z " fill="#687E8A" transform="translate(142,326)"/>
<path d="M0 0 C1.32 0.66 2.64 1.32 4 2 C3.67 2.33 3.34 2.66 3 3 C4.32 3.66 5.64 4.32 7 5 C6.67 5.99 6.34 6.98 6 8 C1.39207676 8.16817795 -3.21602737 8.3286755 -7.82446289 8.48217773 C-9.39094166 8.53542409 -10.95735157 8.59073889 -12.52368164 8.64819336 C-14.77995972 8.73059157 -17.03638379 8.8054563 -19.29296875 8.87890625 C-19.98899704 8.90594131 -20.68502533 8.93297638 -21.40214539 8.96083069 C-25.0918199 9.07312501 -28.41503877 8.90155248 -32 8 C-32.33 7.01 -32.66 6.02 -33 5 C-32.28457031 5.00523682 -31.56914062 5.01047363 -30.83203125 5.01586914 C-27.55469662 5.03680296 -24.27737613 5.04971202 -21 5.0625 C-19.87464844 5.07087891 -18.74929687 5.07925781 -17.58984375 5.08789062 C-11.62415603 5.10533416 -5.89712427 4.91781223 0 4 C0 2.68 0 1.36 0 0 Z " fill="#D0D6D9" transform="translate(216,392)"/>
<path d="M0 0 C2.1875 -0.4375 2.1875 -0.4375 5 0 C7.82537169 2.77058609 9.58800467 5.98212919 11.0625 9.625 C11 12 11 12 9.375 14.8125 C7 17 7 17 4.25 17.3125 C3.5075 17.209375 2.765 17.10625 2 17 C2.66 16.67 3.32 16.34 4 16 C3.525625 14.845 3.05125 13.69 2.5625 12.5 C0.97791232 8.31429668 0.39710805 4.44761014 0 0 Z " fill="#D07D77" transform="translate(293,144)"/>
<path d="M0 0 C12.54 0 25.08 0 38 0 C35.15385634 2.84614366 33.1804005 2.26953503 29.19921875 2.30859375 C27.81575117 2.33376351 26.43228773 2.35916138 25.04882812 2.38476562 C22.86988487 2.41345206 20.6910138 2.43746964 18.51196289 2.45629883 C16.40732618 2.47804045 14.30355372 2.5174945 12.19921875 2.55859375 C10.93940186 2.57204834 9.67958496 2.58550293 8.3815918 2.59936523 C4.78210149 3.02581557 2.95697518 3.98664923 0 6 C-2.28125 6.328125 -2.28125 6.328125 -4.5 6.25 C-5.27214844 6.22421875 -6.04429687 6.1984375 -6.83984375 6.171875 C-9.28533173 5.97729729 -11.62373103 5.6132307 -14 5 C-14 4.67 -14 4.34 -14 4 C-9.05 4 -4.1 4 1 4 C0.67 2.68 0.34 1.36 0 0 Z " fill="#C9D8E4" transform="translate(320,382)"/>
<path d="M0 0 C0.66 0.33 1.32 0.66 2 1 C1.34 2.98 0.68 4.96 0 7 C-1.32 7 -2.64 7 -4 7 C-4.2475 7.70125 -4.495 8.4025 -4.75 9.125 C-6 12 -6 12 -8.1875 15.125 C-8.785625 16.07375 -9.38375 17.0225 -10 18 C-9.67 18.99 -9.34 19.98 -9 21 C-9.48895752 21.38518799 -9.97791504 21.77037598 -10.48168945 22.16723633 C-12.53156226 24.64165266 -12.34571985 26.14156892 -12.29296875 29.32421875 C-12.28330078 30.35224609 -12.27363281 31.38027344 -12.26367188 32.43945312 C-12.23853516 33.51130859 -12.21339844 34.58316406 -12.1875 35.6875 C-12.17396484 36.77095703 -12.16042969 37.85441406 -12.14648438 38.97070312 C-12.11110643 41.64763405 -12.06174189 44.32356838 -12 47 C-15.38051656 43.61948344 -15.15698129 40.00163585 -15.1875 35.375 C-15.02941366 24.46704231 -12.63262284 11.44929879 -4.42773438 3.47119141 C-2.98874905 2.26851419 -1.49828302 1.12794471 0 0 Z " fill="#BE7D70" transform="translate(273,195)"/>
<path d="M0 0 C4.31248547 -0.02929984 8.62494493 -0.04689903 12.9375 -0.0625 C14.14986328 -0.07087891 15.36222656 -0.07925781 16.61132812 -0.08789062 C23.14748569 -0.10560379 29.54403217 -0.08854601 36 1 C36.495 1.99 36.495 1.99 37 3 C24.46 3 11.92 3 -1 3 C-0.67 2.01 -0.34 1.02 0 0 Z " fill="#95BABE" transform="translate(389,276)"/>
<path d="M0 0 C2.3129482 2.3129482 2.49580975 3.47904875 3.125 6.625 C3.29257812 7.44226563 3.46015625 8.25953125 3.6328125 9.1015625 C3.81457031 10.04128906 3.81457031 10.04128906 4 11 C5.65 11 7.3 11 9 11 C8.67 11.66 8.34 12.32 8 13 C1.73 13 -4.54 13 -11 13 C-11 12.34 -11 11.68 -11 11 C-10.0925 10.835 -9.185 10.67 -8.25 10.5 C-4.1595992 8.61212271 -3.47762195 6.78111789 -1.76171875 2.77734375 C-1 1 -1 1 0 0 Z " fill="#3C4953" transform="translate(373,377)"/>
<path d="M0 0 C0.556875 0.144375 1.11375 0.28875 1.6875 0.4375 C4.11505108 1.0279854 6.55002675 1.51000535 9 2 C12.00216229 2.65703889 15.00135629 3.32710174 18 4 C17.625 6.75 17.625 6.75 16 10 C11.45614948 12.63991316 7.25118029 14 2 14 C2 13.34 2 12.68 2 12 C3.6396875 11.814375 3.6396875 11.814375 5.3125 11.625 C9.07381802 11.24535199 9.07381802 11.24535199 12 9 C11.38511719 8.73445313 10.77023438 8.46890625 10.13671875 8.1953125 C9.32847656 7.84210938 8.52023438 7.48890625 7.6875 7.125 C6.88699219 6.77695312 6.08648437 6.42890625 5.26171875 6.0703125 C3 5 3 5 0 3 C0 2.01 0 1.02 0 0 Z " fill="#4A637C" transform="translate(176,350)"/>
<path d="M0 0 C1.87558594 0.00966797 1.87558594 0.00966797 3.7890625 0.01953125 C5.09101563 0.03628906 6.39296875 0.05304688 7.734375 0.0703125 C9.05179687 0.07933594 10.36921875 0.08835937 11.7265625 0.09765625 C14.97934962 0.12122717 18.23177089 0.15413228 21.484375 0.1953125 C21.154375 0.8553125 20.824375 1.5153125 20.484375 2.1953125 C11.244375 2.1953125 2.004375 2.1953125 -7.515625 2.1953125 C-5.865625 3.8453125 -4.215625 5.4953125 -2.515625 7.1953125 C-2.515625 8.1853125 -2.515625 9.1753125 -2.515625 10.1953125 C-4.825625 10.1953125 -7.135625 10.1953125 -9.515625 10.1953125 C-9.845625 7.5553125 -10.175625 4.9153125 -10.515625 2.1953125 C-6.97418975 -0.00098533 -4.11895253 -0.03744502 0 0 Z " fill="#2E435B" transform="translate(361.515625,371.8046875)"/>
<path d="M0 0 C1.32 0 2.64 0 4 0 C4 0.66 4 1.32 4 2 C4.99 2 5.98 2 7 2 C7.27429625 7.39449293 7.36055646 10.51925805 4 15 C1 14 1 14 -0.1875 11.9375 C-1.24602013 8.1105426 -1.19842576 4.9685152 -1 1 C-0.67 0.67 -0.34 0.34 0 0 Z " fill="#F0E3DF" transform="translate(149,300)"/>
<path d="M0 0 C0.33 0 0.66 0 1 0 C1.5390057 16.82112404 1.42030013 30.96374977 -7 46 C-7.66 45.01 -8.32 44.02 -9 43 C-8.67 42.01 -8.34 41.02 -8 40 C-7.01 39.505 -7.01 39.505 -6 39 C-5.76852277 37.01590944 -5.54119298 35.0311188 -5.34765625 33.04296875 C-5 31 -5 31 -3.5 28.5625 C-0.30984305 23.11264854 -0.944582 16.37217826 -1.03125 10.21875 C-0.9825683 6.7623491 -0.49721984 3.41838641 0 0 Z " fill="#6E4C4E" transform="translate(237,256)"/>
<path d="M0 0 C0.33 0.99 0.66 1.98 1 3 C0.34 3.66 -0.32 4.32 -1 5 C-1.33 6.32 -1.66 7.64 -2 9 C3.61 9 9.22 9 15 9 C15 9.66 15 10.32 15 11 C6.75 11 -1.5 11 -10 11 C-10 10.34 -10 9.68 -10 9 C-9.34 9 -8.68 9 -8 9 C-7.71125 8.401875 -7.4225 7.80375 -7.125 7.1875 C-5.21615935 3.4758654 -3.80521864 1.64892808 0 0 Z " fill="#3F5065" transform="translate(115,363)"/>
<path d="M0 0 C2 2 2 2 2 5 C2.66 5 3.32 5 4 5 C4.90234375 6.46875 4.90234375 6.46875 5.9375 8.5 C11.97914367 18.45817431 23.81157254 23.24044265 34 28 C33.67 28.66 33.34 29.32 33 30 C32.34 30 31.68 30 31 30 C31 29.34 31 28.68 31 28 C28.69 28 26.38 28 24 28 C23.67 27.01 23.34 26.02 23 25 C22.278125 24.938125 21.55625 24.87625 20.8125 24.8125 C17.1288673 23.74833944 15.62056344 21.75159161 13 19 C11.34051852 17.98812105 9.67419438 16.9873454 8 16 C4.78382349 13.24327728 3.48435552 10.92293958 2 7 C1.34 6.67 0.68 6.34 0 6 C-0.6875 3.5 -0.6875 3.5 -1 1 C-0.67 0.67 -0.34 0.34 0 0 Z " fill="#A8726B" transform="translate(272,212)"/>
<path d="M0 0 C1.20628008 2.33214148 2.1654738 4.49642139 3 7 C17.19 7 31.38 7 46 7 C46.33 6.01 46.66 5.02 47 4 C48.98 4 50.96 4 53 4 C50.80422187 6.991803 49.4273203 8.73354513 45.70352173 9.42871094 C42.81603674 9.53209591 39.96942181 9.48355872 37.08203125 9.375 C35.50164314 9.34176636 35.50164314 9.34176636 33.889328 9.30786133 C31.66751735 9.25565391 29.44596897 9.1909979 27.22485352 9.11474609 C23.8146749 9.00007313 20.40558439 8.92863552 16.99414062 8.86328125 C14.83586981 8.80723605 12.67766127 8.74872736 10.51953125 8.6875 C9.49559769 8.6654248 8.47166412 8.64334961 7.41670227 8.62060547 C5.99964241 8.56670654 5.99964241 8.56670654 4.55395508 8.51171875 C3.72076248 8.48553467 2.88756989 8.45935059 2.02912903 8.43237305 C0 8 0 8 -2 5 C-2 3.68 -2 2.36 -2 1 C-1.34 0.67 -0.68 0.34 0 0 Z " fill="#A1BAC3" transform="translate(90,285)"/>
<path d="M0 0 C0.99 0 1.98 0 3 0 C3 0.66 3 1.32 3 2 C3.66 2 4.32 2 5 2 C5 2.66 5 3.32 5 4 C5.99 4.33 6.98 4.66 8 5 C7.67 8.63 7.34 12.26 7 16 C2.37867296 13.68933648 1.75004925 12.72513298 0 8 C-0.23028594 5.27576633 -0.14186568 2.74273645 0 0 Z " fill="#B67977" transform="translate(158,172)"/>
<path d="M0 0 C4.02951393 3.7432252 6.92492169 7.64721125 9.8125 12.3125 C10.21919922 12.95767578 10.62589844 13.60285156 11.04492188 14.26757812 C12.0358257 15.84136655 13.01875372 17.42017212 14 19 C13.34 19.99 12.68 20.98 12 22 C9.17234969 18.28635259 6.38565224 14.58398767 3.8125 10.6875 C2.18619373 8.02209398 2.18619373 8.02209398 0.1875 6.4375 C-0.204375 5.963125 -0.59625 5.48875 -1 5 C-0.6875 2.3125 -0.6875 2.3125 0 0 Z " fill="#B8B9BD" transform="translate(367,314)"/>
<path d="M0 0 C1.98 0 3.96 0 6 0 C6 0.66 6 1.32 6 2 C6.53625 2.12375 7.0725 2.2475 7.625 2.375 C10.47901595 3.12605683 13.23803841 3.95659229 16 5 C16.33 5.66 16.66 6.32 17 7 C19.32156597 7.40729228 21.6568787 7.74438677 24 8 C24 9.32 24 10.64 24 12 C26.475 12.495 26.475 12.495 29 13 C29.33 13.99 29.66 14.98 30 16 C25.68867886 14.81438669 22.35947668 13.00751125 18.6328125 10.57421875 C12.64273899 6.99261693 6.26582785 4.06447648 0 1 C0 0.67 0 0.34 0 0 Z " fill="#7C565B" transform="translate(296,268)"/>
<path d="M0 0 C1.32 0.33 2.64 0.66 4 1 C3.690625 2.0725 3.38125 3.145 3.0625 4.25 C2.33187904 6.82866222 1.62517096 9.39512102 1 12 C1.99 12 2.98 12 4 12 C2.58972554 13.46451579 1.17151204 14.9213893 -0.25 16.375 C-1.03890625 17.18710938 -1.8278125 17.99921875 -2.640625 18.8359375 C-4.73379455 20.75583143 -6.40397179 21.91633685 -9 23 C-9 21.68 -9 20.36 -9 19 C-8.34 18.67 -7.68 18.34 -7 18 C-6.00795641 16.31352589 -5.02208685 14.62259612 -4.08984375 12.90234375 C-3 11 -3 11 -0.6875 7.875 C1.29160201 5.13872074 1.29160201 5.13872074 0.75 2.125 C0.5025 1.42375 0.255 0.7225 0 0 Z " fill="#EDE1D2" transform="translate(288,170)"/>
<path d="M0 0 C7.92 0 15.84 0 24 0 C24.33 0.66 24.66 1.32 25 2 C23.25 4.0625 23.25 4.0625 21 6 C18.9375 5.625 18.9375 5.625 17 5 C16.01 5.66 15.02 6.32 14 7 C13.67 5.35 13.34 3.7 13 2 C8.71 1.67 4.42 1.34 0 1 C0 0.67 0 0.34 0 0 Z " fill="#CDDCE5" transform="translate(107,374)"/>
<path d="M0 0 C0.33 0 0.66 0 1 0 C2.06309567 5.17317421 2.11693938 10.12369336 2.0625 15.375 C2.05798828 16.20644531 2.05347656 17.03789062 2.04882812 17.89453125 C2.03713164 19.92971897 2.01919935 21.96486923 2 24 C1.01 24.33 0.02 24.66 -1 25 C-1.66 19.39 -2.32 13.78 -3 8 C-2.01 8 -1.02 8 0 8 C0 5.36 0 2.72 0 0 Z " fill="#E3D0C5" transform="translate(367,182)"/>
<path d="M0 0 C0.99 0.66 1.98 1.32 3 2 C3.53918256 6.62156482 3.61735698 9.58793618 1 13.5 C0.34 14.325 -0.32 15.15 -1 16 C-1.33 15.34 -1.66 14.68 -2 14 C-1.67 13.01 -1.34 12.02 -1 11 C-1.99 11 -2.98 11 -4 11 C-4 10.34 -4 9.68 -4 9 C-4.99 8.67 -5.98 8.34 -7 8 C-7 7.01 -7 6.02 -7 5 C-4.03 5.495 -4.03 5.495 -1 6 C-0.67 4.02 -0.34 2.04 0 0 Z " fill="#7C4C52" transform="translate(157,291)"/>
<path d="M0 0 C-0.78375 0.9075 -1.5675 1.815 -2.375 2.75 C-5.94142724 7.06195158 -7.23604976 10.39769826 -8 16 C-8.33 16 -8.66 16 -9 16 C-9.125 8.375 -9.125 8.375 -8 5 C-14.6 4.67 -21.2 4.34 -28 4 C-28 3.67 -28 3.34 -28 3 C-26.94941406 2.96261719 -25.89882812 2.92523438 -24.81640625 2.88671875 C-17.84952633 2.57973464 -5.67412653 -1.89137551 0 0 Z " fill="#CF8876" transform="translate(248,123)"/>
<path d="M0 0 C0.66 0 1.32 0 2 0 C2.66 1.32 3.32 2.64 4 4 C4.66 3.34 5.32 2.68 6 2 C8.125 2.375 8.125 2.375 10 3 C9.01 3.33 8.02 3.66 7 4 C7 4.66 7 5.32 7 6 C8.32 6.33 9.64 6.66 11 7 C8.11584117 8.44207941 5.58278472 8.09394887 2.375 8.0625 C1.18648438 8.05347656 -0.00203125 8.04445313 -1.2265625 8.03515625 C-2.14179687 8.02355469 -3.05703125 8.01195312 -4 8 C-4 7.01 -4 6.02 -4 5 C-3.01 5 -2.02 5 -1 5 C-0.67 3.35 -0.34 1.7 0 0 Z " fill="#B7BFC1" transform="translate(118,376)"/>
<path d="M0 0 C0 7.26 0 14.52 0 22 C-0.66 21.67 -1.32 21.34 -2 21 C-2.4140625 17.83984375 -2.4140625 17.83984375 -2.625 13.9375 C-2.69976562 12.64714844 -2.77453125 11.35679687 -2.8515625 10.02734375 C-2.90054688 9.02832031 -2.94953125 8.02929688 -3 7 C-5.97 9.475 -5.97 9.475 -9 12 C-3.22222222 0 -3.22222222 0 0 0 Z " fill="#F0DED3" transform="translate(210,236)"/>
<path d="M0 0 C0 3.63 0 7.26 0 11 C-1.99954746 11.04254356 -4.00041636 11.04080783 -6 11 C-7 10 -7 10 -7.1875 7.125 C-7 4 -7 4 -5 1 C-3.28761215 0.42920405 -1.80987317 0 0 0 Z " fill="#B28A81" transform="translate(314,166)"/>
<path d="M0 0 C11.22 0 22.44 0 34 0 C33.67 0.66 33.34 1.32 33 2 C32.07960937 1.98839844 31.15921875 1.97679687 30.2109375 1.96484375 C21.41327493 1.90213129 12.7716103 2.24312762 4 3 C4 2.34 4 1.68 4 1 C2.68 0.67 1.36 0.34 0 0 Z " fill="#DDEBFA" transform="translate(210,386)"/>
<path d="M0 0 C0.33 0 0.66 0 1 0 C1 3.63 1 7.26 1 11 C1.66 11.33 2.32 11.66 3 12 C0.36113346 16.2026393 -2.36440339 19.56638098 -6 23 C-6 18.81320526 -5.26112899 16.93603254 -3.5625 13.1875 C-1.60903283 8.67907436 -0.33331987 4.8886914 0 0 Z " fill="#EADBCE" transform="translate(365,196)"/>
<path d="M0 0 C0.33 0 0.66 0 1 0 C1 2.31 1 4.62 1 7 C2.91750286 6.91256669 4.83406665 6.8043811 6.75 6.6875 C7.81734375 6.62949219 8.8846875 6.57148438 9.984375 6.51171875 C13.21574195 5.96339094 14.53746969 5.06874731 17 3 C17.66 3 18.32 3 19 3 C19.33 4.65 19.66 6.3 20 8 C11.3387414 9.25981943 2.72998757 9.09020653 -6 9 C-6 8.67 -6 8.34 -6 8 C-4.35 7.67 -2.7 7.34 -1 7 C-0.67 4.69 -0.34 2.38 0 0 Z " fill="#424E56" transform="translate(197,389)"/>
<path d="M0 0 C0 0.33 0 0.66 0 1 C-1.794375 1.0928125 -1.794375 1.0928125 -3.625 1.1875 C-8.4354876 1.76851804 -10.61304541 3.61304541 -14 7 C-14.33 7.66 -14.66 8.32 -15 9 C-16.175625 8.835 -17.35125 8.67 -18.5625 8.5 C-22.41273873 8.01271488 -26.12258073 7.91922043 -30 8 C-30 7.34 -30 6.68 -30 6 C-26.03146526 4.67715509 -21.99661384 4.31775936 -17.9765625 5.69140625 C-17.32429688 5.79324219 -16.67203125 5.89507812 -16 6 C-14.3106492 4.79708164 -14.3106492 4.79708164 -12.8125 3.0625 C-8.77013844 -0.74259252 -5.32561343 -0.65211593 0 0 Z " fill="#D8DAD6" transform="translate(384,248)"/>
<path d="M0 0 C0.86625 -0.01675781 1.7325 -0.03351563 2.625 -0.05078125 C5.4116129 0.37546053 6.26608617 1.15081137 8 3.3125 C5.0098145 5.03577319 2.87966022 5.56406728 -0.5625 5.5 C-1.32691406 5.49355469 -2.09132812 5.48710937 -2.87890625 5.48046875 C-5 5.3125 -5 5.3125 -8 4.3125 C-8 3.6525 -8 2.9925 -8 2.3125 C-4.78169935 0.16696623 -3.73213493 0.01666132 0 0 Z " fill="#724E5C" transform="translate(149,287.6875)"/>
<path d="M0 0 C3.53399895 1.47842909 5.55745517 3.44062779 8.0625 6.3125 C8.73410156 7.07175781 9.40570313 7.83101563 10.09765625 8.61328125 C12.0042222 11.00529726 13.63631348 13.25921365 15 16 C14.67 16.99 14.34 17.98 14 19 C13.67 18.01 13.34 17.02 13 16 C12.34 16 11.68 16 11 16 C11 15.01 11 14.02 11 13 C10.01 13 9.02 13 8 13 C7.67 11.02 7.34 9.04 7 7 C5.68 7 4.36 7 3 7 C3 6.01 3 5.02 3 4 C2.34 4 1.68 4 1 4 C0.67 2.68 0.34 1.36 0 0 Z " fill="#ACA6AF" transform="translate(330,289)"/>
<path d="M0 0 C0.33 0.99 0.66 1.98 1 3 C1.99 3.33 2.98 3.66 4 4 C2.18690997 7.77727089 0.0926741 11.37269822 -2 15 C-2.66 15 -3.32 15 -4 15 C-4.50610724 8.92671312 -3.04157942 5.22771463 0 0 Z " fill="#5B768F" transform="translate(148,353)"/>
<path d="M0 0 C0.99 0.495 0.99 0.495 2 1 C3.16009247 4.48027742 3.20416521 7.33321643 3.25 11 C3.27578125 12.2375 3.3015625 13.475 3.328125 14.75 C3 18 3 18 0 21 C0 14.07 0 7.14 0 0 Z " fill="#4B3839" transform="translate(250,299)"/>
<path d="M0 0 C0.66 0 1.32 0 2 0 C2 0.99 2 1.98 2 3 C3.65 3.33 5.3 3.66 7 4 C6.01 4.33 5.02 4.66 4 5 C4 5.66 4 6.32 4 7 C5.32 7.33 6.64 7.66 8 8 C5.16443413 9.41778293 3.0091294 8.86257622 -0.125 8.5625 C-1.76855469 8.40974609 -1.76855469 8.40974609 -3.4453125 8.25390625 C-4.28835938 8.17011719 -5.13140625 8.08632812 -6 8 C-6 7.34 -6 6.68 -6 6 C-4.35 5.67 -2.7 5.34 -1 5 C-0.67 3.35 -0.34 1.7 0 0 Z " fill="#E3CCC3" transform="translate(324,143)"/>
<path d="M0 0 C-0.33 0.99 -0.66 1.98 -1 3 C-1.66 3 -2.32 3 -3 3 C-3 2.01 -3 1.02 -3 0 C-3.62261719 0.31710938 -4.24523437 0.63421875 -4.88671875 0.9609375 C-9.18321806 2.39490088 -13.31008848 2.46383986 -17.8125 2.625 C-18.69615234 2.66367188 -19.57980469 2.70234375 -20.49023438 2.7421875 C-22.65982972 2.83600784 -24.82988547 2.91907326 -27 3 C-22.4958254 0.51591457 -17.97017186 0.00114505 -12.9375 -0.75 C-12.02677734 -0.90082031 -11.11605469 -1.05164063 -10.17773438 -1.20703125 C-9.30310547 -1.33980469 -8.42847656 -1.47257813 -7.52734375 -1.609375 C-6.33226196 -1.7945166 -6.33226196 -1.7945166 -5.11303711 -1.98339844 C-3 -2 -3 -2 0 0 Z " fill="#9E7370" transform="translate(383,144)"/>
<path d="M0 0 C-0.33 0.99 -0.66 1.98 -1 3 C-8.4189942 4.23649903 -14.65485589 3.50382815 -22 2 C-22 1.67 -22 1.34 -22 1 C-19.45847098 0.83096719 -16.91681012 0.66470573 -14.375 0.5 C-13.30572266 0.42845703 -13.30572266 0.42845703 -12.21484375 0.35546875 C-8.13492439 0.09345558 -4.09108781 -0.05162256 0 0 Z " fill="#76788A" transform="translate(190,336)"/>
<path d="M0 0 C0.33 0.66 0.66 1.32 1 2 C2.64363134 2.72159424 4.31050386 3.39351421 6 4 C5.67 4.66 5.34 5.32 5 6 C3.906875 6.28875 2.81375 6.5775 1.6875 6.875 C-2.08054322 8.02457251 -3.52677682 9.03213219 -6 12 C-6.33 11.01 -6.66 10.02 -7 9 C-6.07421875 7.17578125 -6.07421875 7.17578125 -4.6875 5.3125 C-4.23761719 4.68988281 -3.78773438 4.06726563 -3.32421875 3.42578125 C-2.88722656 2.95527344 -2.45023438 2.48476563 -2 2 C-1.34 2 -0.68 2 0 2 C0 1.34 0 0.68 0 0 Z " fill="#7B838E" transform="translate(142,326)"/>
<path d="M0 0 C1.32 0 2.64 0 4 0 C4 0.66 4 1.32 4 2 C4.91523438 2.04898437 5.83046875 2.09796875 6.7734375 2.1484375 C7.96195313 2.22320312 9.15046875 2.29796875 10.375 2.375 C12.15003906 2.47941406 12.15003906 2.47941406 13.9609375 2.5859375 C17 3 17 3 19 5 C17 7 17 7 15.1171875 7.15234375 C9.10406825 6.57617379 4.72776228 4.81312707 0 1 C0 0.67 0 0.34 0 0 Z " fill="#D4D7D2" transform="translate(133,262)"/>
<path d="M0 0 C3 0 3 0 4.6875 1.5625 C6.47674327 4.88538036 6.41275616 7.28519457 6 11 C5.01 11.66 4.02 12.32 3 13 C0.96834048 8.66579301 0.47939368 4.71403788 0 0 Z " fill="#E09694" transform="translate(293,144)"/>
<path d="M0 0 C0.66 0.66 1.32 1.32 2 2 C1.67 2.66 1.34 3.32 1 4 C0.34 4 -0.32 4 -1 4 C-1.33 4.66 -1.66 5.32 -2 6 C-2 5.34 -2 4.68 -2 4 C-7.61 4 -13.22 4 -19 4 C-19.33 3.34 -19.66 2.68 -20 2 C-13.4 2 -6.8 2 0 2 C0 1.34 0 0.68 0 0 Z " fill="#DDDBD8" transform="translate(106,368)"/>
<path d="M0 0 C0 0.66 0 1.32 0 2 C-4.51407419 5.85986054 -9.20717754 5.35051833 -14.8125 5.1875 C-15.69615234 5.17396484 -16.57980469 5.16042969 -17.49023438 5.14648438 C-19.66042023 5.11129217 -21.83029033 5.05748985 -24 5 C-24 4.67 -24 4.34 -24 4 C-23.0821875 3.87882813 -22.164375 3.75765625 -21.21875 3.6328125 C-14.42597657 2.70522789 -6.76719232 0 0 0 Z " fill="#AF7071" transform="translate(330,152)"/>
<path d="M0 0 C1.32 0.66 2.64 1.32 4 2 C3.67 4.64 3.34 7.28 3 10 C1.68 10.33 0.36 10.66 -1 11 C-1.33 8.36 -1.66 5.72 -2 3 C-1.01 3 -0.02 3 1 3 C0.67 2.01 0.34 1.02 0 0 Z " fill="#CDA395" transform="translate(325,190)"/>
<path d="M0 0 C1.0828125 0.2165625 1.0828125 0.2165625 2.1875 0.4375 C3.5796875 0.7159375 3.5796875 0.7159375 5 1 C6.66666667 1.33333333 8.33333333 1.66666667 10 2 C7.25576034 4.94751667 4.63780345 7.22773678 1 9 C0.01 8.67 -0.98 8.34 -2 8 C-0.68 6.02 0.64 4.04 2 2 C1.34 1.34 0.68 0.68 0 0 Z " fill="#728190" transform="translate(220,332)"/>
<path d="M0 0 C6.57142857 5 6.57142857 5 8 10 C4.73045798 9.43628586 3.17424117 8.50037734 1 6 C0.01 6.66 -0.98 7.32 -2 8 C-1.125 1.125 -1.125 1.125 0 0 Z " fill="#78808E" transform="translate(366,319)"/>
<path d="M0 0 C-3.37085462 2.83151788 -6.94625154 4.3350676 -11 6 C-12.34013497 6.65288627 -13.67741528 7.31225595 -15 8 C-15 8.66 -15 9.32 -15 10 C-15.66 10 -16.32 10 -17 10 C-17 10.99 -17 11.98 -17 13 C-17.66 13 -18.32 13 -19 13 C-17.29140957 7.5635759 -14.07995633 4.58733509 -9.625 1.1875 C-6.28984828 -0.32125911 -3.61818596 -0.21283447 0 0 Z " fill="#D2D4D0" transform="translate(133,261)"/>
<path d="M0 0 C5.28 0 10.56 0 16 0 C15.01 1.485 15.01 1.485 14 3 C11.37302936 3.22137393 8.99106036 3.28162025 6.375 3.1875 C5.66859375 3.17396484 4.9621875 3.16042969 4.234375 3.14648438 C2.48925872 3.1111104 0.74453392 3.05730221 -1 3 C-0.67 2.01 -0.34 1.02 0 0 Z " fill="#884C4B" transform="translate(327,160)"/>
<path d="M0 0 C5.57142857 5.14285714 5.57142857 5.14285714 6 9 C3.36 9 0.72 9 -2 9 C-1.34 6.03 -0.68 3.06 0 0 Z " fill="#414D5E" transform="translate(400,365)"/>
<path d="M0 0 C0.66 0.66 1.32 1.32 2 2 C-2.55470668 6.43791933 -6.5847706 8.51010975 -13 9 C-15.2734375 8.5390625 -15.2734375 8.5390625 -17 8 C-15.91332031 7.63648438 -15.91332031 7.63648438 -14.8046875 7.265625 C-9.33085389 5.36802935 -4.62764053 3.50199824 0 0 Z " fill="#848291" transform="translate(208,327)"/>
<path d="M0 0 C2 0 2 0 3.5625 1.375 C5 3 5 3 6 5 C12.27 5 18.54 5 25 5 C25.33 4.34 25.66 3.68 26 3 C26.33 3.99 26.66 4.98 27 6 C18.75 6 10.5 6 2 6 C1.34 4.02 0.68 2.04 0 0 Z " fill="#A6BEC2" transform="translate(359,274)"/>
<path d="M0 0 C2.32883474 3.4932521 2 4.92922578 2 9 C4.57404971 12.86107457 6.61020259 12.94319692 11 14 C10.67 14.66 10.34 15.32 10 16 C4.375 16.25 4.375 16.25 1 14 C0.234375 11.7578125 0.234375 11.7578125 -0.25 9.125 C-0.42015625 8.26132812 -0.5903125 7.39765625 -0.765625 6.5078125 C-0.99778803 4.02366804 -0.76635351 2.35380006 0 0 Z " fill="#825963" transform="translate(348,264)"/>
<path d="M0 0 C0.66 0 1.32 0 2 0 C2.33 2.64 2.66 5.28 3 8 C4.0725 7.87625 5.145 7.7525 6.25 7.625 C7.4875 7.74875 8.725 7.8725 10 8 C12.4375 11 12.4375 11 14 14 C13.67 14.66 13.34 15.32 13 16 C11.5 14.625 11.5 14.625 10 13 C10 12.34 10 11.68 10 11 C8.906875 10.9175 7.81375 10.835 6.6875 10.75 C3 10 3 10 1.0625 8.3125 C-0.27148038 5.40913094 -0.21536552 3.15869424 0 0 Z " fill="#806972" transform="translate(349,267)"/>
<path d="M0 0 C3 1 3 1 4.375 2.4375 C6.38576214 4.37092514 8.39052205 5.0831564 11 6 C11 6.66 11 7.32 11 8 C5.69072575 8.43518641 5.69072575 8.43518641 3 8 C0.54678356 5.16346849 0 3.74876504 0 0 Z " fill="#B3817C" transform="translate(185,201)"/>
<path d="M0 0 C0.66 0 1.32 0 2 0 C2 0.66 2 1.32 2 2 C2.639375 2.268125 3.27875 2.53625 3.9375 2.8125 C6 4 6 4 7 7 C3.37 7 -0.26 7 -4 7 C-4.33 6.34 -4.66 5.68 -5 5 C-3.02 4.67 -1.04 4.34 1 4 C0.67 2.68 0.34 1.36 0 0 Z " fill="#49546E" transform="translate(297,351)"/>
<path d="M0 0 C0.99 1.485 0.99 1.485 2 3 C4.56282742 3.72965366 4.56282742 3.72965366 7 4 C5.125 8.75 5.125 8.75 4 11 C3.01 10.67 2.02 10.34 1 10 C-0.60725635 6.78548731 -0.05748185 3.56387464 0 0 Z " fill="#F4E8E8" transform="translate(149,304)"/>
<path d="M0 0 C2.64 0 5.28 0 8 0 C8 1.32 8 2.64 8 4 C3.545 4.495 3.545 4.495 -1 5 C-0.67 3.35 -0.34 1.7 0 0 Z " fill="#7D4D46" transform="translate(340,165)"/>
<path d="M0 0 C6.93 0.495 6.93 0.495 14 1 C11.22420239 3.77579761 8.69693063 3.86061387 4.875 4.625 C3.59367187 4.88539063 2.31234375 5.14578125 0.9921875 5.4140625 C0.00476563 5.60742188 -0.98265625 5.80078125 -2 6 C-2 4 -2 4 0 2 C0 1.34 0 0.68 0 0 Z " fill="#F7E4DC" transform="translate(316,150)"/>
<path d="M0 0 C-1.15173355 2.46800047 -2.04783565 4.04783565 -4 6 C-6.625 5.625 -6.625 5.625 -9 5 C-8.625 3.0625 -8.625 3.0625 -8 1 C-5.29120665 -0.35439668 -2.99066732 -0.06501451 0 0 Z " fill="#E3D9C9" transform="translate(356,214)"/>
<path d="M0 0 C0.33 0.66 0.66 1.32 1 2 C1.99 2.33 2.98 2.66 4 3 C3.67 5.64 3.34 8.28 3 11 C2.01 10.67 1.02 10.34 0 10 C-0.73046875 8.15234375 -0.73046875 8.15234375 -1.1875 5.9375 C-1.34605469 5.20402344 -1.50460938 4.47054687 -1.66796875 3.71484375 C-1.77753906 3.14894531 -1.88710937 2.58304688 -2 2 C-1.34 2 -0.68 2 0 2 C0 1.34 0 0.68 0 0 Z " fill="#CF8C89" transform="translate(162,174)"/>
<path d="M0 0 C3.63 0.66 7.26 1.32 11 2 C11 2.33 11 2.66 11 3 C9.02 3 7.04 3 5 3 C5 6.96 5 10.92 5 15 C4.67 15 4.34 15 4 15 C3.79503906 14.08476562 3.59007812 13.16953125 3.37890625 12.2265625 C3.10949219 11.03804687 2.84007812 9.84953125 2.5625 8.625 C2.16224609 6.84996094 2.16224609 6.84996094 1.75390625 5.0390625 C1.14365305 2.10505419 1.14365305 2.10505419 0 0 Z " fill="#CB8D83" transform="translate(205,123)"/>
<path d="M0 0 C3 2 3 2 3.6953125 4.0234375 C3.83710938 4.79945313 3.97890625 5.57546875 4.125 6.375 C4.27195312 7.14585937 4.41890625 7.91671875 4.5703125 8.7109375 C4.78300781 9.84402344 4.78300781 9.84402344 5 11 C5.19207031 11.67804688 5.38414062 12.35609375 5.58203125 13.0546875 C6.2409579 16.12146759 5.52884216 18.94446755 5 22 C4.67 22 4.34 22 4 22 C3.89042969 21.23816406 3.78085937 20.47632813 3.66796875 19.69140625 C2.66551378 13.16322389 1.27363487 7.20082237 -1 1 C-0.67 0.67 -0.34 0.34 0 0 Z " fill="#58434E" transform="translate(346,304)"/>
<path d="M0 0 C0.33 0 0.66 0 1 0 C0.98839844 1.13179687 0.97679687 2.26359375 0.96484375 3.4296875 C0.95546546 4.91145669 0.9463653 6.39322765 0.9375 7.875 C0.92912109 8.62136719 0.92074219 9.36773437 0.91210938 10.13671875 C0.79311916 14.19845578 0.79311916 14.19845578 2 18 C1.34 18.99 0.68 19.98 0 21 C-3.10776329 15.17294384 -2.7111525 8.5779278 -1 2.375 C-0.67 1.59125 -0.34 0.8075 0 0 Z " fill="#EDCABB" transform="translate(274,196)"/>
<path d="M0 0 C2.97 0.495 2.97 0.495 6 1 C6.66 3.97 7.32 6.94 8 10 C7.34 10 6.68 10 6 10 C4.4921875 8.3203125 4.4921875 8.3203125 2.875 6.125 C2.33617187 5.40570313 1.79734375 4.68640625 1.2421875 3.9453125 C0 2 0 2 0 0 Z " fill="#674C58" transform="translate(336,292)"/>
<path d="M0 0 C0.33 0 0.66 0 1 0 C1 5.61 1 11.22 1 17 C-0.98 17.99 -0.98 17.99 -3 19 C-2.69035138 16.58293696 -2.37738885 14.16638113 -2.0625 11.75 C-1.97548828 11.06808594 -1.88847656 10.38617188 -1.79882812 9.68359375 C-1.3684062 6.39963389 -0.91205869 3.18809706 0 0 Z " fill="#644549" transform="translate(211,282)"/>
<path d="M0 0 C0.66 0.66 1.32 1.32 2 2 C-3.75 6 -3.75 6 -6 6 C-6.33 6.66 -6.66 7.32 -7 8 C-7.99 7.34 -8.98 6.68 -10 6 C-12.50896686 5.54398739 -12.50896686 5.54398739 -15.1875 5.375 C-16.08855469 5.30023438 -16.98960937 5.22546875 -17.91796875 5.1484375 C-18.60503906 5.09945313 -19.29210937 5.05046875 -20 5 C-20 4.67 -20 4.34 -20 4 C-15.05 4 -10.1 4 -5 4 C-4.67 3.34 -4.34 2.68 -4 2 C-1.9375 0.875 -1.9375 0.875 0 0 Z " fill="#AABDC1" transform="translate(164,283)"/>
<path d="M0 0 C0.33 0 0.66 0 1 0 C1.19696449 3.10364229 1.38093262 6.20792192 1.5625 9.3125 C1.61857422 10.19357422 1.67464844 11.07464844 1.73242188 11.98242188 C1.78076172 12.82998047 1.82910156 13.67753906 1.87890625 14.55078125 C1.9260376 15.33106689 1.97316895 16.11135254 2.02172852 16.9152832 C2 19 2 19 1 22 C-1.95629452 15.34833732 -2.08305834 6.96574709 0 0 Z " fill="#AE786F" transform="translate(259,220)"/>
<path d="M0 0 C0.33 0 0.66 0 1 0 C0.67 6.6 0.34 13.2 0 20 C-0.66 20.33 -1.32 20.66 -2 21 C-2.05420701 18.43721301 -2.09377007 15.87558517 -2.125 13.3125 C-2.15013672 12.2306543 -2.15013672 12.2306543 -2.17578125 11.12695312 C-2.21391569 6.95123219 -1.8789919 3.7505862 0 0 Z " fill="#C57367" transform="translate(238,135)"/>
<path d="M0 0 C1.051875 -0.00386719 1.051875 -0.00386719 2.125 -0.0078125 C4 0.125 4 0.125 6 1.125 C6 1.785 6 2.445 6 3.125 C5.01 3.125 4.02 3.125 3 3.125 C3 2.465 3 1.805 3 1.125 C1.3603125 2.115 1.3603125 2.115 -0.3125 3.125 C-2.93707538 4.70964929 -3.8256378 5.125 -7 5.125 C-6.625 3.1875 -6.625 3.1875 -6 1.125 C-3.75487738 0.00243869 -2.48543351 -0.00913762 0 0 Z " fill="#B8CCCE" transform="translate(108,272.875)"/>
<path d="M0 0 C0.33 0 0.66 0 1 0 C1 6.6 1 13.2 1 20 C0.67 20 0.34 20 0 20 C-0.07347656 18.98679687 -0.07347656 18.98679687 -0.1484375 17.953125 C-0.22320312 17.06109375 -0.29796875 16.1690625 -0.375 15.25 C-0.44460937 14.36828125 -0.51421875 13.4865625 -0.5859375 12.578125 C-0.85992456 9.98895248 -0.85992456 9.98895248 -2.125 7.875 C-2.41375 7.25625 -2.7025 6.6375 -3 6 C-1.625 2.75 -1.625 2.75 0 0 Z " fill="#F0E1E0" transform="translate(209,272)"/>
<path d="M0 0 C1.60785777 0.59427388 3.21117709 1.20083588 4.8125 1.8125 C6.15248047 2.31716797 6.15248047 2.31716797 7.51953125 2.83203125 C9.91924072 3.96197319 11.28423353 5.01062293 13 7 C9.59049659 7 7.21751076 6.09395366 4 5 C2.33911955 4.63893903 0.67381019 4.29537827 -1 4 C-0.67 2.68 -0.34 1.36 0 0 Z " fill="#C0B3B4" transform="translate(302,272)"/>
<path d="M0 0 C0.66 0.33 1.32 0.66 2 1 C2 1.66 2 2.32 2 3 C2.66 3.33 3.32 3.66 4 4 C3.01 4.66 2.02 5.32 1 6 C-0.33568021 5.67619874 -1.66923011 5.34342449 -3 5 C-3.66 5.66 -4.32 6.32 -5 7 C-6.32 5.68 -7.64 4.36 -9 3 C-8.34 2.67 -7.68 2.34 -7 2 C-7 2.66 -7 3.32 -7 4 C-5.88625 3.319375 -4.7725 2.63875 -3.625 1.9375 C-1.7265625 0.77734375 -1.7265625 0.77734375 0 0 Z " fill="#AB6C69" transform="translate(322,122)"/>
<path d="M0 0 C2.31 0 4.62 0 7 0 C6.67 0.99 6.34 1.98 6 3 C5.34 3 4.68 3 4 3 C3.54625 4.134375 3.0925 5.26875 2.625 6.4375 C1 10 1 10 -1 11 C-0.9278125 10.28972656 -0.855625 9.57945312 -0.78125 8.84765625 C-0.6884375 7.92855469 -0.595625 7.00945312 -0.5 6.0625 C-0.4071875 5.14597656 -0.314375 4.22945313 -0.21875 3.28515625 C-0.05708522 1.64507518 -0.05708522 1.64507518 0 0 Z " fill="#CBD7E4" transform="translate(368,376)"/>
<path d="M0 0 C5.28 0.66 10.56 1.32 16 2 C16.33 1.34 16.66 0.68 17 0 C16.67 1.32 16.34 2.64 16 4 C9.5589964 5.64451156 5.78217394 4.05498079 0 1 C0 0.67 0 0.34 0 0 Z " fill="#3E455E" transform="translate(288,356)"/>
<path d="M0 0 C0.66 0 1.32 0 2 0 C2 0.99 2 1.98 2 3 C-0.9162118 3.22201613 -3.83207744 3.42808498 -6.75 3.625 C-7.575 3.68945312 -8.4 3.75390625 -9.25 3.8203125 C-10.04921875 3.871875 -10.8484375 3.9234375 -11.671875 3.9765625 C-12.77160645 4.05511475 -12.77160645 4.05511475 -13.89355469 4.13525391 C-16.34775441 3.97767085 -17.88853213 3.22264839 -20 2 C-19.42967041 1.97494385 -18.85934082 1.9498877 -18.27172852 1.92407227 C-15.70173843 1.80843451 -13.13214473 1.68556376 -10.5625 1.5625 C-9.66466797 1.52318359 -8.76683594 1.48386719 -7.84179688 1.44335938 C-6.98779297 1.40146484 -6.13378906 1.35957031 -5.25390625 1.31640625 C-4.46314697 1.27974854 -3.6723877 1.24309082 -2.85766602 1.20532227 C-0.98598559 1.19436743 -0.98598559 1.19436743 0 0 Z " fill="#CAD3D6" transform="translate(382,388)"/>
<path d="M0 0 C0.66 0 1.32 0 2 0 C1.67 1.98 1.34 3.96 1 6 C0.01 6.33 -0.98 6.66 -2 7 C-2.99 8.485 -2.99 8.485 -4 10 C-4.99 10 -5.98 10 -7 10 C-5.32598022 6.04322598 -2.86850715 3.15535787 0 0 Z " fill="#596F7F" transform="translate(127,346)"/>
<path d="M0 0 C-0.875 3.875 -0.875 3.875 -2 5 C-3.99958364 5.04080783 -6.00045254 5.04254356 -8 5 C-8 4.01 -8 3.02 -8 2 C-4.77208445 -0.1519437 -3.71599191 -0.20086443 0 0 Z " fill="#AD7470" transform="translate(411,213)"/>
<path d="M0 0 C0.33 0 0.66 0 1 0 C1 5.28 1 10.56 1 16 C0.34 16 -0.32 16 -1 16 C-1.66 13.36 -2.32 10.72 -3 8 C-2.01 8 -1.02 8 0 8 C0 5.36 0 2.72 0 0 Z " fill="#BB9A92" transform="translate(367,182)"/>
<path d="M0 0 C0.66 0 1.32 0 2 0 C2.33 2.31 2.66 4.62 3 7 C5.97 7.33 8.94 7.66 12 8 C10 10 10 10 6.625 10.4375 C3 10 3 10 0.5 7.8125 C-1 5 -1 5 -0.75 2.1875 C-0.5025 1.465625 -0.255 0.74375 0 0 Z " fill="#F4D5CC" transform="translate(346,137)"/>
<path d="M0 0 C4.06051787 1.35350596 4.64228453 3.27512664 6.75 6.9375 C7.38421875 8.01902344 8.0184375 9.10054688 8.671875 10.21484375 C9.11015625 11.13394531 9.5484375 12.05304688 10 13 C9.67 13.66 9.34 14.32 9 15 C8.60167969 14.39671875 8.20335937 13.7934375 7.79296875 13.171875 C7.26316406 12.37265625 6.73335938 11.5734375 6.1875 10.75 C5.66542969 9.96109375 5.14335937 9.1721875 4.60546875 8.359375 C3.55377514 6.81382041 2.45271711 5.3004844 1.30078125 3.828125 C0 2 0 2 0 0 Z " fill="#CAD5DF" transform="translate(369,320)"/>
<path d="M0 0 C0.66 0 1.32 0 2 0 C1.625 2.4375 1.625 2.4375 1 5 C0.01 5.495 0.01 5.495 -1 6 C-1.144375 6.639375 -1.28875 7.27875 -1.4375 7.9375 C-2 10 -2 10 -5 12 C-5.99 11.67 -6.98 11.34 -8 11 C-7.50628906 10.37351562 -7.01257813 9.74703125 -6.50390625 9.1015625 C-5.54291016 7.87566406 -5.54291016 7.87566406 -4.5625 6.625 C-3.92441406 5.81289063 -3.28632813 5.00078125 -2.62890625 4.1640625 C-0.97776453 2.10601894 -0.97776453 2.10601894 0 0 Z " fill="#564849" transform="translate(202,314)"/>
<path d="M0 0 C5.78591511 -0.10477512 11.29309366 0.00749455 17 1 C17 1.33 17 1.66 17 2 C15.329375 2.12375 15.329375 2.12375 13.625 2.25 C9.94246056 2.57873787 9.94246056 2.57873787 8.5625 5.0625 C8.376875 5.701875 8.19125 6.34125 8 7 C7.34 7 6.68 7 6 7 C6.33 5.35 6.66 3.7 7 2 C4.69 1.67 2.38 1.34 0 1 C0 0.67 0 0.34 0 0 Z " fill="#E9C9BE" transform="translate(330,163)"/>
<path d="M0 0 C4.10811428 1.44992269 7.46855666 3.45407573 11 6 C11 6.33 11 6.66 11 7 C9.35 7 7.7 7 6 7 C6 6.34 6 5.68 6 5 C4.02 4.34 2.04 3.68 0 3 C0 2.01 0 1.02 0 0 Z " fill="#8A6461" transform="translate(332,253)"/>
<path d="M0 0 C2.31 0.33 4.62 0.66 7 1 C7 1.66 7 2.32 7 3 C7.66 3.33 8.32 3.66 9 4 C9 4.66 9 5.32 9 6 C9.66 6 10.32 6 11 6 C10.67 6.66 10.34 7.32 10 8 C8.51714758 7.04737966 7.03881799 6.08771595 5.5625 5.125 C4.73878906 4.59132813 3.91507812 4.05765625 3.06640625 3.5078125 C1 2 1 2 0 0 Z " fill="#95615D" transform="translate(269,252)"/>
<path d="M0 0 C3.63 0.66 7.26 1.32 11 2 C10.67 2.66 10.34 3.32 10 4 C7.6859378 4.73075648 5.35171131 5.40138258 3 6 C2.01 4.02 1.02 2.04 0 0 Z " fill="#D8D8D5" transform="translate(404,369)"/>
<path d="M0 0 C1.32 0.33 2.64 0.66 4 1 C2.02 3.31 0.04 5.62 -2 8 C-2.99 7.67 -3.98 7.34 -5 7 C-5 6.01 -5 5.02 -5 4 C-4.01 4 -3.02 4 -2 4 C-1.34 2.68 -0.68 1.36 0 0 Z " fill="#E0E9ED" transform="translate(122,348)"/>
<path d="M0 0 C0.66 0.33 1.32 0.66 2 1 C0.125 5.75 0.125 5.75 -1 8 C-2.32 7.34 -3.64 6.68 -5 6 C-5 5.34 -5 4.68 -5 4 C-3.37373596 2.61767557 -1.7074998 1.28062485 0 0 Z " fill="#DFDDE3" transform="translate(214,322)"/>
<path d="M0 0 C0.66 0 1.32 0 2 0 C1.34 2.64 0.68 5.28 0 8 C-2.475 7.01 -2.475 7.01 -5 6 C-4.67 5.34 -4.34 4.68 -4 4 C-3.34 4 -2.68 4 -2 4 C-1.34 2.68 -0.68 1.36 0 0 Z " fill="#E5EDF4" transform="translate(100,274)"/>
<path d="M0 0 C0.33 0.66 0.66 1.32 1 2 C0.67 2.66 0.34 3.32 0 4 C-0.66 4 -1.32 4 -2 4 C-2.33 6.64 -2.66 9.28 -3 12 C-3.99 12.33 -4.98 12.66 -6 13 C-5.49890261 7.73847744 -3.79035827 3.79035827 0 0 Z " fill="#F9DBC8" transform="translate(246,124)"/>
<path d="M0 0 C2 3 2 3 1.75 5.625 C1.5025 6.40875 1.255 7.1925 1 8 C0.01 8.495 0.01 8.495 -1 9 C-1.66 8.67 -2.32 8.34 -3 8 C-2.45276317 4.62537285 -1.9451 2.91765 0 0 Z " fill="#6C859D" transform="translate(152,348)"/>
<path d="M0 0 C0.66 0.33 1.32 0.66 2 1 C2 3.31 2 5.62 2 8 C3.65 8 5.3 8 7 8 C6.67 8.66 6.34 9.32 6 10 C3.625 9.8125 3.625 9.8125 1 9 C-0.59642719 6.31509973 -1.12740282 4.78565071 -0.625 1.6875 C-0.41875 1.130625 -0.2125 0.57375 0 0 Z " fill="#747C88" transform="translate(330,336)"/>
<path d="M0 0 C2.47859908 2.2008849 3.61210366 4.06372969 4.6875 7.1875 C4.93886719 7.90292969 5.19023437 8.61835938 5.44921875 9.35546875 C5.63097656 9.89816406 5.81273437 10.44085938 6 11 C5.01 11.495 5.01 11.495 4 12 C2.02 8.37 0.04 4.74 -2 1 C-1.34 0.67 -0.68 0.34 0 0 Z " fill="#E5E7EF" transform="translate(383,333)"/>
<path d="M0 0 C1.06505018 3.19515053 1.27693153 3.99008996 0 7 C-2.5625 9.25 -2.5625 9.25 -5 11 C-4.74445946 9.53890937 -4.46999628 8.08111904 -4.1875 6.625 C-4.03667969 5.81289063 -3.88585937 5.00078125 -3.73046875 4.1640625 C-3 2 -3 2 0 0 Z " fill="#6D7A8D" transform="translate(347,329)"/>
<path d="M0 0 C0.66 0 1.32 0 2 0 C1.01 2.97 0.02 5.94 -1 9 C-1.66 9 -2.32 9 -3 9 C-3.33 9.99 -3.66 10.98 -4 12 C-5 10 -5 10 -4.44140625 8.0546875 C-4.15136719 7.33539063 -3.86132812 6.61609375 -3.5625 5.875 C-3.27503906 5.15054687 -2.98757813 4.42609375 -2.69140625 3.6796875 C-2.46324219 3.12539063 -2.23507812 2.57109375 -2 2 C-1.34 2 -0.68 2 0 2 C0 1.34 0 0.68 0 0 Z " fill="#443D51" transform="translate(350,328)"/>
<path d="M0 0 C1.60332791 -0.08121924 3.20784026 -0.13929134 4.8125 -0.1875 C6.15248047 -0.23970703 6.15248047 -0.23970703 7.51953125 -0.29296875 C10 0 10 0 13 3 C10.03 3 7.06 3 4 3 C4 2.34 4 1.68 4 1 C2.68 0.67 1.36 0.34 0 0 Z " fill="#746573" transform="translate(144,288)"/>
<path d="M0 0 C0 0.66 0 1.32 0 2 C0.66 2 1.32 2 2 2 C2 2.99 2 3.98 2 5 C-0.31 4.67 -2.62 4.34 -5 4 C-5.33 3.01 -5.66 2.02 -6 1 C-4 0 -4 0 0 0 Z " fill="#B9CCCF" transform="translate(162,273)"/>
<path d="M0 0 C1.32 0.33 2.64 0.66 4 1 C4 3.64 4 6.28 4 9 C5.32 9.66 6.64 10.32 8 11 C6.02 11 4.04 11 2 11 C2 10.01 2 9.02 2 8 C1.34 8 0.68 8 0 8 C0 7.01 0 6.02 0 5 C0.66 5 1.32 5 2 5 C2 3.68 2 2.36 2 1 C1.34 0.67 0.68 0.34 0 0 Z " fill="#F4D8CF" transform="translate(368,168)"/>
<path d="M0 0 C2.31 0.66 4.62 1.32 7 2 C7 2.99 7 3.98 7 5 C4.69 5 2.38 5 0 5 C0 3.35 0 1.7 0 0 Z " fill="#2E3E50" transform="translate(352,377)"/>
<path d="M0 0 C0.33 0 0.66 0 1 0 C1 3.96 1 7.92 1 12 C0.34 11.67 -0.32 11.34 -1 11 C-1 10.01 -1 9.02 -1 8 C-2.32 7.34 -3.64 6.68 -5 6 C-3.35 5.67 -1.7 5.34 0 5 C0 3.35 0 1.7 0 0 Z " fill="#676A76" transform="translate(250,320)"/>
<path d="M0 0 C3.63 0 7.26 0 11 0 C11 0.33 11 0.66 11 1 C9.02 1 7.04 1 5 1 C4.67 2.98 4.34 4.96 4 7 C3.34 7 2.68 7 2 7 C1.34 4.69 0.68 2.38 0 0 Z " fill="#7A7B86" transform="translate(257,317)"/>
<path d="M0 0 C0.33 1.32 0.66 2.64 1 4 C2.65 4.33 4.3 4.66 6 5 C6.33 5.99 6.66 6.98 7 8 C3.08788267 6.84414715 0.1254959 5.64465038 -3 3 C-2 1 -2 1 0 0 Z " fill="#785158" transform="translate(319,276)"/>
<path d="M0 0 C3.3 0.33 6.6 0.66 10 1 C10.33 2.32 10.66 3.64 11 5 C6.87248551 4.39301257 3.6678852 2.96189209 0 1 C0 0.67 0 0.34 0 0 Z " fill="#8C6461" transform="translate(285,263)"/>
<path d="M0 0 C2 0.6875 2 0.6875 4 2.6875 C2.35 2.6875 0.7 2.6875 -1 2.6875 C-1.33 3.6775 -1.66 4.6675 -2 5.6875 C-2.99 5.0275 -3.98 4.3675 -5 3.6875 C-4.67 2.6975 -4.34 1.7075 -4 0.6875 C-2 -0.3125 -2 -0.3125 0 0 Z " fill="#AE857E" transform="translate(284,154.3125)"/>
<path d="M0 0 C1.0725 0.2475 2.145 0.495 3.25 0.75 C0.85236815 3.14763185 -0.08273498 3.09280586 -3.375 3.375 C-4.19226563 3.44976562 -5.00953125 3.52453125 -5.8515625 3.6015625 C-6.47804688 3.65054688 -7.10453125 3.69953125 -7.75 3.75 C-5.15187156 0.32047046 -4.43092205 -0.2953948 0 0 Z " fill="#845051" transform="translate(368.75,153.25)"/>
<path d="M0 0 C0.99 0.33 1.98 0.66 3 1 C2.01 2.485 2.01 2.485 1 4 C0.01 4 -0.98 4 -2 4 C-2.33 4.66 -2.66 5.32 -3 6 C-4.65 6 -6.3 6 -8 6 C-8 5.34 -8 4.68 -8 4 C-7.236875 3.71125 -6.47375 3.4225 -5.6875 3.125 C-2.84970692 2.03730987 -2.84970692 2.03730987 0 0 Z " fill="#3B4955" transform="translate(133,376)"/>
<path d="M0 0 C2.97 0.33 5.94 0.66 9 1 C6 3 6 3 2.875 3.5 C1.92625 3.665 0.9775 3.83 0 4 C-0.33 4.66 -0.66 5.32 -1 6 C-1.66 5.67 -2.32 5.34 -3 5 C-2.67 4.01 -2.34 3.02 -2 2 C-1.34 2 -0.68 2 0 2 C0 1.34 0 0.68 0 0 Z " fill="#546C81" transform="translate(156,349)"/>
<path d="M0 0 C0.33 0.99 0.66 1.98 1 3 C-0.8125 6.1875 -0.8125 6.1875 -3 9 C-3.66 9 -4.32 9 -5 9 C-5 9.66 -5 10.32 -5 11 C-5.66 11 -6.32 11 -7 11 C-5.20974068 7.12110481 -3.03770253 3.03770253 0 0 Z " fill="#454159" transform="translate(359,331)"/>
<path d="M0 0 C1.7824918 3.33311475 2.48792856 6.24480943 3 10 C2.01 10.33 1.02 10.66 0 11 C-0.33 10.67 -0.66 10.34 -1 10 C-0.91036938 8.30858344 -0.75422324 6.62040398 -0.5625 4.9375 C-0.46066406 4.01839844 -0.35882813 3.09929687 -0.25390625 2.15234375 C-0.17011719 1.44207031 -0.08632812 0.73179687 0 0 Z " fill="#634C4F" transform="translate(253,305)"/>
<path d="M0 0 C0 0.33 0 0.66 0 1 C-1.794375 1.0928125 -1.794375 1.0928125 -3.625 1.1875 C-8.40730383 1.74912287 -10.60507231 3.68994551 -14 7 C-14 4 -14 4 -12.0625 1.8125 C-7.95142865 -0.62058305 -4.6603705 -0.36551926 0 0 Z " fill="#E0D8CF" transform="translate(384,248)"/>
<path d="M0 0 C1.65 0 3.3 0 5 0 C5.04254356 1.99954746 5.04080783 4.00041636 5 6 C4 7 4 7 1.93359375 7.09765625 C1.10988281 7.08605469 0.28617187 7.07445312 -0.5625 7.0625 C-1.38878906 7.05347656 -2.21507812 7.04445312 -3.06640625 7.03515625 C-3.70449219 7.02355469 -4.34257812 7.01195312 -5 7 C-4.67 5.68 -4.34 4.36 -4 3 C-4 3.99 -4 4.98 -4 6 C-0.51190809 5.22969878 -0.51190809 5.22969878 3 4 C3.33 3.01 3.66 2.02 4 1 C2.68 0.67 1.36 0.34 0 0 Z " fill="#F3D2C7" transform="translate(407,212)"/>
<path d="M0 0 C0.66 0.33 1.32 0.66 2 1 C1.34 2.98 0.68 4.96 0 7 C-2 7 -4 7 -6 7 C-4.60667426 3.63279613 -3.0210714 2.0140476 0 0 Z " fill="#BB887F" transform="translate(273,195)"/>
<path d="M0 0 C1.32 0.33 2.64 0.66 4 1 C4 1.66 4 2.32 4 3 C3.01 3 2.02 3 1 3 C1.33 4.65 1.66 6.3 2 8 C0.68 7.34 -0.64 6.68 -2 6 C-1.34 4.02 -0.68 2.04 0 0 Z " fill="#F4D6CB" transform="translate(322,190)"/>
<path d="M0 0 C0.66 0.33 1.32 0.66 2 1 C1.835 1.598125 1.67 2.19625 1.5 2.8125 C0.8885876 5.11344336 0.8885876 5.11344336 1 8 C-1.31 6.35 -3.62 4.7 -6 3 C-5.34 2.34 -4.68 1.68 -4 1 C-4 1.66 -4 2.32 -4 3 C-2.68 2.01 -1.36 1.02 0 0 Z " fill="#BAB6BC" transform="translate(164,320)"/>
<path d="M0 0 C0.93065133 2.60582371 1.14917407 3.64198224 0.0625 6.25 C-0.4634375 7.11625 -0.4634375 7.11625 -1 8 C-2.65 8 -4.3 8 -6 8 C-5.34 6.68 -4.68 5.36 -4 4 C-3.34 4 -2.68 4 -2 4 C-2 3.34 -2 2.68 -2 2 C-1.34 2 -0.68 2 0 2 C0 1.34 0 0.68 0 0 Z " fill="#C5CACB" transform="translate(272,308)"/>
<path d="M0 0 C0.66 0 1.32 0 2 0 C1.67 2.31 1.34 4.62 1 7 C-0.65 6.67 -2.3 6.34 -4 6 C-2.7260411 3.96166576 -1.38938077 1.96147874 0 0 Z " fill="#D7D5D3" transform="translate(350,256)"/>
<path d="M0 0 C1.32 0 2.64 0 4 0 C3.34 1.65 2.68 3.3 2 5 C3.65 5 5.3 5 7 5 C7 5.66 7 6.32 7 7 C6.34 7 5.68 7 5 7 C4.67 7.66 4.34 8.32 4 9 C4 8.01 4 7.02 4 6 C3.01 6 2.02 6 1 6 C1 4.68 1 3.36 1 2 C0.34 1.67 -0.32 1.34 -1 1 C-0.67 0.67 -0.34 0.34 0 0 Z " fill="#F1D6CC" transform="translate(318,134)"/>
<path d="M0 0 C1.98 0 3.96 0 6 0 C5.175 0.7425 4.35 1.485 3.5 2.25 C0.55155147 4.87387385 0.55155147 4.87387385 1 9 C0.34 9 -0.32 9 -1 9 C-0.67 6.03 -0.34 3.06 0 0 Z " fill="#36415C" transform="translate(334,352)"/>
<path d="M0 0 C0.66 0 1.32 0 2 0 C2.33 0.99 2.66 1.98 3 3 C5.00016466 4.20882096 5.00016466 4.20882096 7 5 C7 5.33 7 5.66 7 6 C4.69 6 2.38 6 0 6 C0 4.02 0 2.04 0 0 Z " fill="#83817B" transform="translate(412,350)"/>
<path d="M0 0 C1.31471568 0.28151087 2.62675767 0.57553339 3.9375 0.875 C4.66839844 1.03742188 5.39929688 1.19984375 6.15234375 1.3671875 C8 2 8 2 9 4 C2.25 4.125 2.25 4.125 0 3 C0 2.01 0 1.02 0 0 Z " fill="#747183" transform="translate(150,332)"/>
<path d="M0 0 C1.32 0.66 2.64 1.32 4 2 C3.34 3.32 2.68 4.64 2 6 C-1.3 6 -4.6 6 -8 6 C-8 5.67 -8 5.34 -8 5 C-5.36 4.67 -2.72 4.34 0 4 C0 2.68 0 1.36 0 0 Z " fill="#AAB2B8" transform="translate(216,392)"/>
<path d="M0 0 C0.33 1.65 0.66 3.3 1 5 C-1.31 5 -3.62 5 -6 5 C-6 4.34 -6 3.68 -6 3 C-2.53846154 0 -2.53846154 0 0 0 Z " fill="#3C444D" transform="translate(216,392)"/>
<path d="M0 0 C0.66 0.33 1.32 0.66 2 1 C-0.31 3.64 -2.62 6.28 -5 9 C-5.66 8.67 -6.32 8.34 -7 8 C-4.69 5.36 -2.38 2.72 0 0 Z " fill="#545E6E" transform="translate(119,356)"/>
<path d="M0 0 C0 0.66 0 1.32 0 2 C-2.1875 3.5078125 -2.1875 3.5078125 -5 5.125 C-5.928125 5.66382813 -6.85625 6.20265625 -7.8125 6.7578125 C-8.8953125 7.37269531 -8.8953125 7.37269531 -10 8 C-8.45164495 3.35493484 -5.01418035 0 0 0 Z " fill="#43435E" transform="translate(350,344)"/>
<path d="M0 0 C0.75 1.6875 0.75 1.6875 1 4 C-0.9375 6.75 -0.9375 6.75 -3 9 C-4 7 -4 7 -3.1875 4.5 C-2 2 -2 2 0 0 Z " fill="#4A4556" transform="translate(363,322)"/>
<path d="M0 0 C2.92879371 0.62759865 5.36095629 1.58622659 8 3 C8 3.66 8 4.32 8 5 C4.28400809 5.20086443 3.22791555 5.1519437 0 3 C0 2.01 0 1.02 0 0 Z " fill="#B4AFB1" transform="translate(316,280)"/>
<path d="M0 0 C1.98 0 3.96 0 6 0 C6 0.66 6 1.32 6 2 C6.99 2 7.98 2 9 2 C9 2.99 9 3.98 9 5 C5.9168649 3.80100302 2.93720508 2.52299523 0 1 C0 0.67 0 0.34 0 0 Z " fill="#855C5E" transform="translate(296,268)"/>
<path d="M0 0 C2.35953094 2.35953094 2.49141413 3.77895617 3 7 C0.03 6.505 0.03 6.505 -3 6 C-1.125 1.125 -1.125 1.125 0 0 Z " fill="#394C58" transform="translate(373,377)"/>
<path d="M0 0 C2.97 0.33 5.94 0.66 9 1 C9.33 2.32 9.66 3.64 10 5 C5.05 3.02 5.05 3.02 0 1 C0 0.67 0 0.34 0 0 Z " fill="#544150" transform="translate(143,327)"/>
<path d="M0 0 C0.66 2.64 1.32 5.28 2 8 C-0.31 6.02 -2.62 4.04 -5 2 C-2 0 -2 0 0 0 Z " fill="#B5A8AF" transform="translate(156,314)"/>
<path d="M0 0 C3.63 0.66 7.26 1.32 11 2 C11 2.33 11 2.66 11 3 C9.02 3 7.04 3 5 3 C5 3.66 5 4.32 5 5 C3.68 4.67 2.36 4.34 1 4 C0.67 2.68 0.34 1.36 0 0 Z " fill="#E7F6F7" transform="translate(417,267)"/>
<path d="M0 0 C2.97 0.495 2.97 0.495 6 1 C6 1.66 6 2.32 6 3 C4.88625 3.309375 3.7725 3.61875 2.625 3.9375 C-0.7945155 4.82326483 -0.7945155 4.82326483 -3 6 C-2 4 -1 2 0 0 Z " fill="#B56463" transform="translate(303,156)"/>
<path d="M0 0 C0.99 0.33 1.98 0.66 3 1 C1.37660195 2.70884005 -0.29319053 4.37446717 -2 6 C-2.66 6 -3.32 6 -4 6 C-4.33 5.01 -4.66 4.02 -5 3 C-2.6875 1.4375 -2.6875 1.4375 0 0 Z " fill="#BF9385" transform="translate(245,122)"/>
<path d="M0 0 C-0.33 0.99 -0.66 1.98 -1 3 C-3.97 2.67 -6.94 2.34 -10 2 C-10 1.67 -10 1.34 -10 1 C-6.56484998 0.37542727 -3.50935186 0 0 0 Z " fill="#E5E3DE" transform="translate(410,383)"/>
<path d="M0 0 C1.32 0 2.64 0 4 0 C4 0.66 4 1.32 4 2 C5.32 1.67 6.64 1.34 8 1 C8.33 1.66 8.66 2.32 9 3 C7.5625 5.625 7.5625 5.625 6 8 C5.67 7.34 5.34 6.68 5 6 C5.33 5.01 5.66 4.02 6 3 C5.01 3 4.02 3 3 3 C3 2.34 3 1.68 3 1 C2.01 0.67 1.02 0.34 0 0 Z " fill="#937376" transform="translate(150,299)"/>
<path d="M0 0 C2.77982621 1.3899131 2.87463341 3.18658353 4 6 C4.66 6.33 5.32 6.66 6 7 C5.67 7.99 5.34 8.98 5 10 C0.125 4.375 0.125 4.375 -1 1 C-0.67 0.67 -0.34 0.34 0 0 Z " fill="#99665D" transform="translate(262,241)"/>
<path d="M0 0 C1.32 0.33 2.64 0.66 4 1 C4.33 2.32 4.66 3.64 5 5 C3.35 4.67 1.7 4.34 0 4 C0 2.68 0 1.36 0 0 Z " fill="#B48581" transform="translate(168,205)"/>
<path d="M0 0 C0.66 0 1.32 0 2 0 C2 2.31 2 4.62 2 7 C0.68 6.67 -0.64 6.34 -2 6 C-1.34 4.02 -0.68 2.04 0 0 Z " fill="#41454F" transform="translate(118,376)"/>
<path d="M0 0 C0.66 0 1.32 0 2 0 C2 0.66 2 1.32 2 2 C2.639375 2.28875 3.27875 2.5775 3.9375 2.875 C6 4 6 4 7 6 C4.03 5.505 4.03 5.505 1 5 C0.67 3.35 0.34 1.7 0 0 Z " fill="#516078" transform="translate(297,351)"/>
<path d="M0 0 C0.33 0.66 0.66 1.32 1 2 C-0.73397418 5.65047197 -2.19333016 7.55609075 -6 9 C-4.47291037 5.56404834 -2.40072955 2.88087546 0 0 Z " fill="#49495E" transform="translate(345,336)"/>
<path d="M0 0 C-1.24546405 3.73639216 -2.63404953 4.18756513 -6 6 C-6 5.34 -6 4.68 -6 4 C-6.66 3.67 -7.32 3.34 -8 3 C-2.25 0 -2.25 0 0 0 Z " fill="#69757E" transform="translate(240,329)"/>
<path d="M0 0 C0.66 0.33 1.32 0.66 2 1 C-0.31 3.31 -2.62 5.62 -5 8 C-5.66 7.67 -6.32 7.34 -7 7 C-2.25 1.125 -2.25 1.125 0 0 Z " fill="#533D45" transform="translate(218,316)"/>
<path d="M0 0 C0 0.66 0 1.32 0 2 C-0.7425 1.79375 -1.485 1.5875 -2.25 1.375 C-5.32330841 0.95591249 -6.42786866 1.38050989 -9 3 C-9.66 2.34 -10.32 1.68 -11 1 C-6.92630576 -1.03684712 -4.41062136 -1.0257259 0 0 Z " fill="#C2D0CD" transform="translate(415,265)"/>
<path d="M0 0 C0.33 0 0.66 0 1 0 C1 2.97 1 5.94 1 9 C-0.32 9 -1.64 9 -3 9 C-3 8.34 -3 7.68 -3 7 C-2.34 7 -1.68 7 -1 7 C-0.67 4.69 -0.34 2.38 0 0 Z " fill="#936E65" transform="translate(312,167)"/>
<path d="M0 0 C-3.6441774 2.4294516 -5.71241272 2.16179575 -10 2 C-6.80505194 -1.19494806 -4.22040044 -1.35655728 0 0 Z " fill="#493B4C" transform="translate(197,333)"/>
<path d="M0 0 C-5.75 4 -5.75 4 -8 4 C-8 3.01 -8 2.02 -8 1 C-3.375 -1.125 -3.375 -1.125 0 0 Z " fill="#4F3D4E" transform="translate(208,328)"/>
<path d="M0 0 C1.65 0 3.3 0 5 0 C5.33 0.99 5.66 1.98 6 3 C4.02 3 2.04 3 0 3 C0 2.01 0 1.02 0 0 Z " fill="#926660" transform="translate(190,206)"/>
<path d="M0 0 C2.31 0 4.62 0 7 0 C7 0.33 7 0.66 7 1 C5.02 1 3.04 1 1 1 C1.66 2.32 2.32 3.64 3 5 C1.68 5 0.36 5 -1 5 C-0.67 3.35 -0.34 1.7 0 0 Z " fill="#8B655B" transform="translate(340,165)"/>
<path d="M0 0 C1.73662334 3.22515763 2.8905928 6.51329166 4 10 C3.34 10 2.68 10 2 10 C2 9.34 2 8.68 2 8 C1.34 8 0.68 8 0 8 C0 5.36 0 2.72 0 0 Z " fill="#A16463" transform="translate(361,162)"/>
<path d="M0 0 C3 3.875 3 3.875 3 5 C1.02 5 -0.96 5 -3 5 C-3 4.01 -3 3.02 -3 2 C-2.01 2 -1.02 2 0 2 C0 1.34 0 0.68 0 0 Z " fill="#A26D68" transform="translate(319,129)"/>
<path d="M0 0 C2.475 0.495 2.475 0.495 5 1 C4.67 1.99 4.34 2.98 4 4 C2.68 3.67 1.36 3.34 0 3 C0 2.01 0 1.02 0 0 Z " fill="#D7DADD" transform="translate(218,396)"/>
<path d="M0 0 C1.32 0 2.64 0 4 0 C4.66 1.32 5.32 2.64 6 4 C4.35 4 2.7 4 1 4 C0.67 2.68 0.34 1.36 0 0 Z " fill="#BAC4CA" transform="translate(376,384)"/>
<path d="M0 0 C2.475 0.495 2.475 0.495 5 1 C5 1.66 5 2.32 5 3 C3.35 3.66 1.7 4.32 0 5 C0 3.35 0 1.7 0 0 Z " fill="#465B77" transform="translate(131,372)"/>
<path d="M0 0 C0.66 0 1.32 0 2 0 C1.67 1.65 1.34 3.3 1 5 C-0.32 5 -1.64 5 -3 5 C-2.34 4.67 -1.68 4.34 -1 4 C-0.34786708 1.97536745 -0.34786708 1.97536745 0 0 Z " fill="#8C8C83" transform="translate(89,349)"/>
<path d="M0 0 C1.98 0 3.96 0 6 0 C4.35 1.65 2.7 3.3 1 5 C-0.32 4.34 -1.64 3.68 -3 3 C-2.34 3 -1.68 3 -1 3 C-0.67 2.01 -0.34 1.02 0 0 Z " fill="#9BB1B5" transform="translate(137,289)"/>
<path d="M0 0 C2 0 2 0 3.625 1.3125 C5 3 5 3 5 6 C4.01 6 3.02 6 2 6 C1.34 4.02 0.68 2.04 0 0 Z " fill="#A8B5BC" transform="translate(359,274)"/>
</svg>
